<?xml version="1.0" encoding="UTF-8"?>
<svg version="1.1" xmlns="http://www.w3.org/2000/svg" width="500" height="500">
<path d="M0 0 C165 0 330 0 500 0 C500 165 500 330 500 500 C335 500 170 500 0 500 C0 335 0 170 0 0 Z " fill="#FEFEFE" transform="translate(0,0)"/>
<path d="M0 0 C1.54373291 -0.00833862 1.54373291 -0.00833862 3.11865234 -0.0168457 C14.04438621 0.0853701 24.230385 1.92527267 34.5625 5.4375 C35.46476318 5.74316895 36.36702637 6.04883789 37.29663086 6.36376953 C50.83341609 11.11035645 64.01101969 18.07351969 74.25 28.3125 C77.13717605 28.9962613 77.13717605 28.9962613 80.375 29.4375 C81.47070312 29.60507813 82.56640625 29.77265625 83.6953125 29.9453125 C84.53835938 30.06648438 85.38140625 30.18765625 86.25 30.3125 C86.25 30.6425 86.25 30.9725 86.25 31.3125 C85.445625 31.43625 84.64125 31.56 83.8125 31.6875 C82.966875 31.89375 82.12125 32.1 81.25 32.3125 C80.92 32.9725 80.59 33.6325 80.25 34.3125 C80.82234375 34.56128906 81.3946875 34.81007812 81.984375 35.06640625 C84.5764509 36.492048 86.37424427 38.196887 88.5 40.25 C93.24681577 44.56599915 97.62967902 47.3125 104.25 47.3125 C103.26 46.3225 102.27 45.3325 101.25 44.3125 C102.24 44.3125 103.23 44.3125 104.25 44.3125 C101.61 41.6725 98.97 39.0325 96.25 36.3125 C99.25 36.3125 99.25 36.3125 101.01171875 37.8515625 C101.64722656 38.53992188 102.28273438 39.22828125 102.9375 39.9375 C106.31150748 43.46174158 109.8001843 46.37388007 113.78125 49.18359375 C114.50828125 49.74240234 114.50828125 49.74240234 115.25 50.3125 C115.25 50.6425 115.25 50.9725 115.25 51.3125 C105.71214564 51.85012436 98.64281212 49.83170653 90.25 45.3125 C90.6109375 45.79460937 90.971875 46.27671875 91.34375 46.7734375 C91.8078125 47.40507812 92.271875 48.03671875 92.75 48.6875 C93.2140625 49.31398437 93.678125 49.94046875 94.15625 50.5859375 C95.25 52.3125 95.25 52.3125 95.25 54.3125 C95.97703125 54.43625 96.7040625 54.56 97.453125 54.6875 C107.46795638 56.92545115 115.30716599 63.38903676 120.921875 71.82421875 C124.25 77.62974017 124.25 77.62974017 124.25 80.3125 C116.33576758 79.70371289 110.20984346 75.2249193 104.25 70.3125 C104.57613281 71.14910156 104.90226563 71.98570312 105.23828125 72.84765625 C115.59801787 100.44306087 115.37073706 130.5510945 103.45507812 157.69262695 C88.8941444 189.20235395 64.16764246 208.86299766 32.375 221.0625 C4.17239894 230.50604973 -26.6996771 230.60025359 -53.75 217.3125 C-74.41422691 206.92824177 -74.41422691 206.92824177 -81.1015625 198.63671875 C-83.63579747 196.60092336 -86.11569398 196.76318381 -89.3125 196.5 C-100.17617007 195.1140997 -106.32882861 190.15259232 -113.69921875 182.36328125 C-115.49878953 180.56371047 -117.16609682 179.21713032 -119.3125 177.875 C-120.116875 177.359375 -120.92125 176.84375 -121.75 176.3125 C-121.75 175.6525 -121.75 174.9925 -121.75 174.3125 C-115.06461792 173.78815631 -109.75258353 175.34034839 -103.41015625 177.4375 C-101.05840599 178.3645765 -101.05840599 178.3645765 -99.75 178.3125 C-102.65439946 173.1794772 -104.94453226 171.32707892 -110.5 168.9375 C-120.69638075 164.22022406 -126.81086175 157.37786508 -131.75 147.3125 C-131.75 146.6525 -131.75 145.9925 -131.75 145.3125 C-124.42889378 146.47458035 -119.65702873 148.871755 -113.75 153.3125 C-113.75 150.5496225 -114.09663286 148.77460821 -114.84375 146.15625 C-123.21462445 114.94054696 -119.19805999 84.91122476 -103.26977539 57.01757812 C-99.66138417 50.93117108 -95.54263481 45.52580495 -90.75 40.3125 C-90.28110352 39.7959082 -89.81220703 39.27931641 -89.32910156 38.74707031 C-66.65869182 14.02238396 -33.38648736 0.15056748 0 0 Z " fill="#FEFEFD" transform="translate(253.75,96.6875)"/>
<path d="M0 0 C1.54373291 -0.00833862 1.54373291 -0.00833862 3.11865234 -0.0168457 C14.04438621 0.0853701 24.230385 1.92527267 34.5625 5.4375 C35.46476318 5.74316895 36.36702637 6.04883789 37.29663086 6.36376953 C50.83341609 11.11035645 64.01101969 18.07351969 74.25 28.3125 C77.13717605 28.9962613 77.13717605 28.9962613 80.375 29.4375 C81.47070312 29.60507813 82.56640625 29.77265625 83.6953125 29.9453125 C84.53835938 30.06648438 85.38140625 30.18765625 86.25 30.3125 C86.25 30.6425 86.25 30.9725 86.25 31.3125 C85.445625 31.43625 84.64125 31.56 83.8125 31.6875 C82.966875 31.89375 82.12125 32.1 81.25 32.3125 C80.92 32.9725 80.59 33.6325 80.25 34.3125 C80.82234375 34.56128906 81.3946875 34.81007812 81.984375 35.06640625 C84.5764509 36.492048 86.37424427 38.196887 88.5 40.25 C93.24681577 44.56599915 97.62967902 47.3125 104.25 47.3125 C103.26 46.3225 102.27 45.3325 101.25 44.3125 C102.24 44.3125 103.23 44.3125 104.25 44.3125 C101.61 41.6725 98.97 39.0325 96.25 36.3125 C99.25 36.3125 99.25 36.3125 101.01171875 37.8515625 C101.64722656 38.53992188 102.28273438 39.22828125 102.9375 39.9375 C106.31150748 43.46174158 109.8001843 46.37388007 113.78125 49.18359375 C114.50828125 49.74240234 114.50828125 49.74240234 115.25 50.3125 C115.25 50.6425 115.25 50.9725 115.25 51.3125 C106.60217908 51.79995546 99.8262354 50.56135911 92.375 46.0625 C90.828125 45.19625 90.828125 45.19625 89.25 44.3125 C88.26 44.6425 87.27 44.9725 86.25 45.3125 C88.2352101 52.08026172 90.11980801 58.22570534 96.25 62.3125 C95.59 62.3125 94.93 62.3125 94.25 62.3125 C94.12625 63.26125 94.0025 64.21 93.875 65.1875 C93.25 68.3125 93.25 68.3125 91.25 70.3125 C90.25 68.3125 90.25 68.3125 90.875 66.0625 C91.60793102 62.61845791 91.60793102 62.61845791 88.25 57.3125 C87.59 65.2325 86.93 73.1525 86.25 81.3125 C83.25 80.3125 83.25 80.3125 81.828125 77.87890625 C81.38984375 76.88761719 80.9515625 75.89632812 80.5 74.875 C80.05140625 73.88628906 79.6028125 72.89757812 79.140625 71.87890625 C78.84671875 71.03199219 78.5528125 70.18507813 78.25 69.3125 C78.58 68.6525 78.91 67.9925 79.25 67.3125 C81.23 70.7775 81.23 70.7775 83.25 74.3125 C86.84531736 62.62771859 85.9810273 50.28188964 81.2734375 38.96484375 C80.76683594 38.14693359 80.76683594 38.14693359 80.25 37.3125 C79.59 37.168125 78.93 37.02375 78.25 36.875 C77.26 36.5965625 77.26 36.5965625 76.25 36.3125 C75.96769531 35.55453125 75.68539062 34.7965625 75.39453125 34.015625 C70.36730426 22.14244727 50.54047409 14.53589538 39.06640625 9.7890625 C32.57592155 7.21360189 26.28608425 5.10004275 19.25 5.3125 C20.27738281 5.61542969 21.30476562 5.91835937 22.36328125 6.23046875 C40.05866922 11.53758535 55.0482888 19.31141432 69.25 31.3125 C70.45829232 32.31254956 71.66661896 33.31255765 72.875 34.3125 C73.65875 34.9725 74.4425 35.6325 75.25 36.3125 C74.26 37.3025 74.26 37.3025 73.25 38.3125 C72.62996094 37.70664063 72.00992188 37.10078125 71.37109375 36.4765625 C55.76373917 21.70977869 37.48800293 11.47865692 16.25 7.3125 C15.45851563 7.11011719 14.66703125 6.90773438 13.8515625 6.69921875 C-10.95590501 0.9473296 -38.19022306 6.63766438 -59.625 19.75 C-83.14075874 35.57926446 -99.40185304 56.77550481 -106.75 84.3125 C-106.96398437 85.06273437 -107.17796875 85.81296875 -107.3984375 86.5859375 C-109.66839971 94.90913226 -109.94354906 103.3584262 -109.9375 111.9375 C-109.93814453 112.89156738 -109.93878906 113.84563477 -109.93945312 114.82861328 C-109.88055097 122.79512951 -109.11883831 130.46612324 -107.75 138.3125 C-104.99638858 135.55888858 -104.27585973 132.31404636 -103.125 128.6875 C-102.89554688 127.98109375 -102.66609375 127.2746875 -102.4296875 126.546875 C-101.86437579 124.80383055 -101.30647456 123.05838584 -100.75 121.3125 C-100.09 121.3125 -99.43 121.3125 -98.75 121.3125 C-96.26896873 128.31100505 -95.27750998 134.5282582 -95.375 141.9375 C-95.36339844 142.82695312 -95.35179687 143.71640625 -95.33984375 144.6328125 C-95.35924863 149.03125136 -95.67342083 152.61435994 -97.3359375 156.7109375 C-98.77222936 160.36911732 -98.92542401 160.87388077 -97.75 164.3125 C-97.11345658 165.6604743 -96.45394612 166.99846724 -95.75 168.3125 C-95.42 166.6625 -95.09 165.0125 -94.75 163.3125 C-94.42 163.3125 -94.09 163.3125 -93.75 163.3125 C-93.56824219 164.45847656 -93.38648438 165.60445312 -93.19921875 166.78515625 C-92.94577898 168.31518151 -92.69184643 169.8451252 -92.4375 171.375 C-92.26057617 172.50325195 -92.26057617 172.50325195 -92.08007812 173.65429688 C-91.24325111 178.61088764 -89.90466601 182.7677843 -87.75 187.3125 C-87.91371094 186.51585937 -88.07742187 185.71921875 -88.24609375 184.8984375 C-88.85791538 180.54454401 -88.85799591 176.3261058 -88.8125 171.9375 C-88.80798828 171.10605469 -88.80347656 170.27460938 -88.79882812 169.41796875 C-88.78713164 167.38278103 -88.76919935 165.34763077 -88.75 163.3125 C-88.42 163.3125 -88.09 163.3125 -87.75 163.3125 C-87.62882812 164.60285156 -87.50765625 165.89320313 -87.3828125 167.22265625 C-87.21387992 168.94013747 -87.04459013 170.65758358 -86.875 172.375 C-86.79636719 173.22255859 -86.71773437 174.07011719 -86.63671875 174.94335938 C-86.13479141 179.94332783 -85.45041519 184.57023097 -83.75 189.3125 C-83.09 189.6425 -82.43 189.9725 -81.75 190.3125 C-81.853125 191.03953125 -81.95625 191.7665625 -82.0625 192.515625 C-81.55846074 197.02677641 -78.52644231 198.63234537 -75.140625 201.3581543 C-68.50708762 206.5206363 -61.22935235 210.52146008 -53.75 214.3125 C-52.78835937 214.80621094 -51.82671875 215.29992187 -50.8359375 215.80859375 C-40.12147671 220.76441783 -25.64889383 225.00892355 -13.75 224.3125 C-13.75 223.9825 -13.75 223.6525 -13.75 223.3125 C-12.78513672 223.29062622 -12.78513672 223.29062622 -11.80078125 223.26831055 C22.91418068 222.39238916 50.63433493 214.66317937 75.3671875 189.3984375 C77.67408942 186.84265819 79.50344736 184.27404578 81.25 181.3125 C80.7653125 181.63863281 80.280625 181.96476563 79.78125 182.30078125 C68.53460728 189.63272718 55.50374211 192.63245383 42.15380859 189.88037109 C31.77245819 187.14515062 22.07567682 182.51900316 12.37744141 178.00439453 C6.68122093 175.36619778 0.97663539 172.92058893 -4.9375 170.8125 C-5.57115479 170.58175781 -6.20480957 170.35101563 -6.85766602 170.11328125 C-16.6745492 166.73476846 -26.62362346 165.97752113 -36.9375 165.6875 C-38.65163086 165.62949219 -38.65163086 165.62949219 -40.40039062 165.5703125 C-43.18344445 165.47715589 -45.96651022 165.39134151 -48.75 165.3125 C-48.10546875 164.54679688 -47.4609375 163.78109375 -46.796875 162.9921875 C-43.80223717 158.50023076 -44.07811948 153.67860716 -44 148.4375 C-43.95552734 146.97570312 -43.95552734 146.97570312 -43.91015625 145.484375 C-43.83984136 143.09366873 -43.78695766 140.70391566 -43.75 138.3125 C-44.84248047 138.14234375 -44.84248047 138.14234375 -45.95703125 137.96875 C-57.48724086 135.2595539 -67.83023313 124.6960451 -74.1484375 115.12890625 C-81.84666872 101.59128501 -85.6911022 86.22198558 -81.87890625 70.78515625 C-76.67853201 57.53698975 -67.81092534 49.61579052 -55.33984375 43.390625 C-47.85859758 40.27626008 -41.01423244 39.95767656 -33.04492188 39.83398438 C-27.8544693 39.67288782 -24.29596353 39.08546684 -19.75 36.3125 C-19.09 35.9825 -18.43 35.6525 -17.75 35.3125 C-15.70461111 42.26682222 -15.16830366 49.09125787 -14.75 56.3125 C-15.34039062 55.55195313 -15.93078125 54.79140625 -16.5390625 54.0078125 C-21.01745959 48.54828248 -26.72689179 43.03135471 -33.9609375 41.99609375 C-41.68223733 41.61855385 -49.14942427 43.23478015 -55.1171875 48.3359375 C-66.24556657 60.27958244 -66.38114775 75.36573107 -66.05859375 90.890625 C-65.4725108 104.84961301 -60.21859346 118.87704312 -50.75 129.3125 C-49.55630668 130.22252547 -48.34199887 131.10597203 -47.11132812 131.96533203 C-46.166828 132.62832809 -46.166828 132.62832809 -45.20324707 133.30471802 C-44.72367554 133.63728607 -44.244104 133.96985413 -43.75 134.3125 C-43.79418987 128.70686253 -43.86406217 123.10234744 -43.95751953 117.49731445 C-43.9857061 115.59148095 -44.00693216 113.68553105 -44.02099609 111.77954102 C-44.04245783 109.03601594 -44.08912365 106.29388687 -44.140625 103.55078125 C-44.14185364 102.70163651 -44.14308228 101.85249176 -44.14434814 100.97761536 C-44.16406677 100.17716293 -44.1837854 99.37671051 -44.20410156 98.55200195 C-44.21298401 97.85250931 -44.22186646 97.15301666 -44.23101807 96.43232727 C-44.7765512 93.55995796 -44.7765512 93.55995796 -48.75 89.3125 C-29.94 89.3125 -11.13 89.3125 8.25 89.3125 C11.25 103.3125 11.25 103.3125 10.25 107.3125 C9.86070312 106.79300781 9.47140625 106.27351563 9.0703125 105.73828125 C2.99041629 98.15942445 -3.65966252 95.34261249 -12.75 92.3125 C-17.7 91.9825 -22.65 91.6525 -27.75 91.3125 C-27.75 102.8625 -27.75 114.4125 -27.75 126.3125 C-15.50267134 122.97431829 -15.50267134 122.97431829 -7.75 114.3125 C-7.75 122.2325 -7.75 130.1525 -7.75 138.3125 C-9.07 136.6625 -10.39 135.0125 -11.75 133.3125 C-16.59079017 129.27768133 -16.59079017 129.27768133 -27.75 127.3125 C-27.75 139.5225 -27.75 151.7325 -27.75 164.3125 C-24.12 164.3125 -20.49 164.3125 -16.75 164.3125 C-4.23233468 165.67593865 7.70108867 169.73316845 19.65771484 173.49755859 C41.42138617 180.33944359 62.34727885 185.5410521 84.29199219 176.46826172 C86.57253576 175.12211542 87.26047441 174.08175992 88.46875 171.75 C88.84169189 171.04133789 89.21463379 170.33267578 89.59887695 169.60253906 C89.97874756 168.84682617 90.35861816 168.09111328 90.75 167.3125 C91.14727295 166.53358398 91.5445459 165.75466797 91.95385742 164.95214844 C93.06769762 162.74607814 94.16072732 160.5307724 95.25 158.3125 C95.68957031 157.45140625 96.12914062 156.5903125 96.58203125 155.703125 C105.47438286 136.28874778 107.13501561 107.52538987 100.25 87.3125 C99.59 86.9825 98.93 86.6525 98.25 86.3125 C98.25 79.3825 98.25 72.4525 98.25 65.3125 C99.24 65.6425 100.23 65.9725 101.25 66.3125 C101.28867187 67.71435547 101.28867187 67.71435547 101.328125 69.14453125 C101.65738109 76.76980308 102.48940107 83.77658695 104.3125 91.1875 C111.05003572 120.09825377 104.34466912 150.3667339 89.36035156 175.5859375 C86.90824156 179.39889307 84.01136843 182.82303949 81.03515625 186.23828125 C79.21087202 188.18701618 79.21087202 188.18701618 78.25 190.3125 C90.96562509 177.26620854 99.74200968 162.22910674 105 144.75 C105.19883789 144.0902417 105.39767578 143.4304834 105.60253906 142.75073242 C108.61511333 132.14342226 109.57667774 121.55070322 109.875 110.5625 C109.93300781 108.78359375 109.93300781 108.78359375 109.9921875 106.96875 C110.08526085 104.08347625 110.17108941 101.19818979 110.25 98.3125 C110.91 98.6425 111.57 98.9725 112.25 99.3125 C113.41601019 135.34669958 105.31781097 164.91465886 80.22680664 191.72143555 C59.13677249 213.55061455 27.23170126 226.94551211 -2.98364258 227.78735352 C-31.1927593 228.00876166 -58.52087757 219.42303384 -79.75 200.3125 C-80.19601563 199.75949219 -80.64203125 199.20648438 -81.1015625 198.63671875 C-83.63579747 196.60092336 -86.11569398 196.76318381 -89.3125 196.5 C-100.17617007 195.1140997 -106.32882861 190.15259232 -113.69921875 182.36328125 C-115.49878953 180.56371047 -117.16609682 179.21713032 -119.3125 177.875 C-120.116875 177.359375 -120.92125 176.84375 -121.75 176.3125 C-121.75 175.6525 -121.75 174.9925 -121.75 174.3125 C-115.06461792 173.78815631 -109.75258353 175.34034839 -103.41015625 177.4375 C-101.05840599 178.3645765 -101.05840599 178.3645765 -99.75 178.3125 C-102.65439946 173.1794772 -104.94453226 171.32707892 -110.5 168.9375 C-120.69638075 164.22022406 -126.81086175 157.37786508 -131.75 147.3125 C-131.75 146.6525 -131.75 145.9925 -131.75 145.3125 C-124.42889378 146.47458035 -119.65702873 148.871755 -113.75 153.3125 C-113.75 150.5496225 -114.09663286 148.77460821 -114.84375 146.15625 C-123.21462445 114.94054696 -119.19805999 84.91122476 -103.26977539 57.01757812 C-99.66138417 50.93117108 -95.54263481 45.52580495 -90.75 40.3125 C-90.28110352 39.7959082 -89.81220703 39.27931641 -89.32910156 38.74707031 C-66.65869182 14.02238396 -33.38648736 0.15056748 0 0 Z " fill="#474747" transform="translate(253.75,96.6875)"/>
<path d="M0 0 C1.54373291 -0.00833862 1.54373291 -0.00833862 3.11865234 -0.0168457 C14.04438621 0.0853701 24.230385 1.92527267 34.5625 5.4375 C35.46476318 5.74316895 36.36702637 6.04883789 37.29663086 6.36376953 C50.83341609 11.11035645 64.01101969 18.07351969 74.25 28.3125 C77.13717605 28.9962613 77.13717605 28.9962613 80.375 29.4375 C81.47070312 29.60507813 82.56640625 29.77265625 83.6953125 29.9453125 C84.53835938 30.06648438 85.38140625 30.18765625 86.25 30.3125 C86.25 30.6425 86.25 30.9725 86.25 31.3125 C85.445625 31.43625 84.64125 31.56 83.8125 31.6875 C82.966875 31.89375 82.12125 32.1 81.25 32.3125 C80.92 32.9725 80.59 33.6325 80.25 34.3125 C80.82234375 34.56128906 81.3946875 34.81007812 81.984375 35.06640625 C84.5764509 36.492048 86.37424427 38.196887 88.5 40.25 C93.24681577 44.56599915 97.62967902 47.3125 104.25 47.3125 C103.26 46.3225 102.27 45.3325 101.25 44.3125 C102.24 44.3125 103.23 44.3125 104.25 44.3125 C101.61 41.6725 98.97 39.0325 96.25 36.3125 C99.25 36.3125 99.25 36.3125 101.01171875 37.8515625 C101.64722656 38.53992188 102.28273438 39.22828125 102.9375 39.9375 C106.31150748 43.46174158 109.8001843 46.37388007 113.78125 49.18359375 C114.50828125 49.74240234 114.50828125 49.74240234 115.25 50.3125 C115.25 50.6425 115.25 50.9725 115.25 51.3125 C106.60217908 51.79995546 99.8262354 50.56135911 92.375 46.0625 C90.828125 45.19625 90.828125 45.19625 89.25 44.3125 C88.26 44.6425 87.27 44.9725 86.25 45.3125 C88.2352101 52.08026172 90.11980801 58.22570534 96.25 62.3125 C95.59 62.3125 94.93 62.3125 94.25 62.3125 C94.12625 63.26125 94.0025 64.21 93.875 65.1875 C93.25 68.3125 93.25 68.3125 91.25 70.3125 C90.25 68.3125 90.25 68.3125 90.875 66.0625 C91.60793102 62.61845791 91.60793102 62.61845791 88.25 57.3125 C87.59 65.2325 86.93 73.1525 86.25 81.3125 C83.25 80.3125 83.25 80.3125 81.828125 77.87890625 C81.38984375 76.88761719 80.9515625 75.89632812 80.5 74.875 C80.05140625 73.88628906 79.6028125 72.89757812 79.140625 71.87890625 C78.84671875 71.03199219 78.5528125 70.18507813 78.25 69.3125 C78.58 68.6525 78.91 67.9925 79.25 67.3125 C81.23 70.7775 81.23 70.7775 83.25 74.3125 C86.84531736 62.62771859 85.9810273 50.28188964 81.2734375 38.96484375 C80.76683594 38.14693359 80.76683594 38.14693359 80.25 37.3125 C79.59 37.168125 78.93 37.02375 78.25 36.875 C77.26 36.5965625 77.26 36.5965625 76.25 36.3125 C75.96769531 35.55453125 75.68539062 34.7965625 75.39453125 34.015625 C70.36730426 22.14244727 50.54047409 14.53589538 39.06640625 9.7890625 C32.57592155 7.21360189 26.28608425 5.10004275 19.25 5.3125 C20.27738281 5.61542969 21.30476562 5.91835937 22.36328125 6.23046875 C40.05866922 11.53758535 55.0482888 19.31141432 69.25 31.3125 C70.45829232 32.31254956 71.66661896 33.31255765 72.875 34.3125 C73.65875 34.9725 74.4425 35.6325 75.25 36.3125 C74.26 37.3025 74.26 37.3025 73.25 38.3125 C72.62996094 37.70664063 72.00992188 37.10078125 71.37109375 36.4765625 C55.76373917 21.70977869 37.48800293 11.47865692 16.25 7.3125 C15.45851563 7.11011719 14.66703125 6.90773438 13.8515625 6.69921875 C-10.95590501 0.9473296 -38.19022306 6.63766438 -59.625 19.75 C-83.14075874 35.57926446 -99.40185304 56.77550481 -106.75 84.3125 C-106.96398437 85.06273437 -107.17796875 85.81296875 -107.3984375 86.5859375 C-109.66839971 94.90913226 -109.94354906 103.3584262 -109.9375 111.9375 C-109.93814453 112.89156738 -109.93878906 113.84563477 -109.93945312 114.82861328 C-109.88055097 122.79512951 -109.11883831 130.46612324 -107.75 138.3125 C-104.99638858 135.55888858 -104.27585973 132.31404636 -103.125 128.6875 C-102.89554688 127.98109375 -102.66609375 127.2746875 -102.4296875 126.546875 C-101.86437579 124.80383055 -101.30647456 123.05838584 -100.75 121.3125 C-100.09 121.3125 -99.43 121.3125 -98.75 121.3125 C-96.26896873 128.31100505 -95.27750998 134.5282582 -95.375 141.9375 C-95.36339844 142.82695312 -95.35179687 143.71640625 -95.33984375 144.6328125 C-95.35924863 149.03125136 -95.67342083 152.61435994 -97.3359375 156.7109375 C-99.02601477 161.01549894 -98.51355723 162.40360693 -96.875 166.5 C-94.54655592 172.32111019 -92.55056501 178.06809291 -91.75 184.3125 C-93.4 183.3225 -95.05 182.3325 -96.75 181.3125 C-96.75 182.3025 -96.75 183.2925 -96.75 184.3125 C-96.193125 184.539375 -95.63625 184.76625 -95.0625 185 C-92.11753316 186.67146766 -90.06843456 188.86526352 -87.75 191.3125 C-88.08 192.3025 -88.41 193.2925 -88.75 194.3125 C-94.0160714 195.67777777 -96.90659833 195.66089313 -101.6875 192.9375 C-106.26425236 189.92851381 -109.94636947 186.32943635 -113.69921875 182.36328125 C-115.49878953 180.56371047 -117.16609682 179.21713032 -119.3125 177.875 C-120.116875 177.359375 -120.92125 176.84375 -121.75 176.3125 C-121.75 175.6525 -121.75 174.9925 -121.75 174.3125 C-115.06461792 173.78815631 -109.75258353 175.34034839 -103.41015625 177.4375 C-101.05840599 178.3645765 -101.05840599 178.3645765 -99.75 178.3125 C-102.65439946 173.1794772 -104.94453226 171.32707892 -110.5 168.9375 C-120.69638075 164.22022406 -126.81086175 157.37786508 -131.75 147.3125 C-131.75 146.6525 -131.75 145.9925 -131.75 145.3125 C-124.42889378 146.47458035 -119.65702873 148.871755 -113.75 153.3125 C-113.75 150.5496225 -114.09663286 148.77460821 -114.84375 146.15625 C-123.21462445 114.94054696 -119.19805999 84.91122476 -103.26977539 57.01757812 C-99.66138417 50.93117108 -95.54263481 45.52580495 -90.75 40.3125 C-90.28110352 39.7959082 -89.81220703 39.27931641 -89.32910156 38.74707031 C-66.65869182 14.02238396 -33.38648736 0.15056748 0 0 Z " fill="#595959" transform="translate(253.75,96.6875)"/>
<path d="M0 0 C4.18773998 4.18773998 4.125 12.49243716 4.125 18.25 C4.08375 19.1575 4.0425 20.065 4 21 C3.484375 20.29875 2.96875 19.5975 2.4375 18.875 C-2.19536924 13.41059013 -7.84739032 7.73738761 -15.2109375 6.68359375 C-22.93223733 6.30605385 -30.39942427 7.92228015 -36.3671875 13.0234375 C-47.49556657 24.96708244 -47.63114775 40.05323107 -47.30859375 55.578125 C-46.7225108 69.53711301 -41.46859346 83.56454312 -32 94 C-29.69 95.65 -27.38 97.3 -25 99 C-25 86.79 -25 74.58 -25 62 C-24.67 62 -24.34 62 -24 62 C-24 81.8 -24 101.6 -24 122 C-24.33 122 -24.66 122 -25 122 C-25 115.73 -25 109.46 -25 103 C-26.65 102.67 -28.3 102.34 -30 102 C-45.74542798 94.59038683 -55.23166242 81.90697973 -61.8359375 66.296875 C-65.4249851 56.13192139 -65.89789827 42.5267769 -61.9375 32.4375 C-55.30191774 18.96130344 -44.87740485 10.80842799 -30.8203125 5.88671875 C-25.32275024 4.6106997 -19.91898526 4.60877582 -14.29492188 4.52148438 C-8.96898678 4.35618283 -4.01546421 4.01546421 0 0 Z " fill="#DFB84E" transform="translate(235,132)"/>
<path d="M0 0 C1.54373291 -0.00833862 1.54373291 -0.00833862 3.11865234 -0.0168457 C14.04438621 0.0853701 24.230385 1.92527267 34.5625 5.4375 C35.46476318 5.74316895 36.36702637 6.04883789 37.29663086 6.36376953 C50.83341609 11.11035645 64.01101969 18.07351969 74.25 28.3125 C77.13717605 28.9962613 77.13717605 28.9962613 80.375 29.4375 C81.47070312 29.60507813 82.56640625 29.77265625 83.6953125 29.9453125 C84.53835938 30.06648438 85.38140625 30.18765625 86.25 30.3125 C86.25 30.6425 86.25 30.9725 86.25 31.3125 C85.445625 31.43625 84.64125 31.56 83.8125 31.6875 C82.966875 31.89375 82.12125 32.1 81.25 32.3125 C80.92 32.9725 80.59 33.6325 80.25 34.3125 C80.82234375 34.56128906 81.3946875 34.81007812 81.984375 35.06640625 C84.5764509 36.492048 86.37424427 38.196887 88.5 40.25 C93.24681577 44.56599915 97.62967902 47.3125 104.25 47.3125 C103.26 46.3225 102.27 45.3325 101.25 44.3125 C102.24 44.3125 103.23 44.3125 104.25 44.3125 C101.61 41.6725 98.97 39.0325 96.25 36.3125 C99.25 36.3125 99.25 36.3125 101.01171875 37.8515625 C101.64722656 38.53992188 102.28273438 39.22828125 102.9375 39.9375 C106.31150748 43.46174158 109.8001843 46.37388007 113.78125 49.18359375 C114.50828125 49.74240234 114.50828125 49.74240234 115.25 50.3125 C115.25 50.6425 115.25 50.9725 115.25 51.3125 C106.60217908 51.79995546 99.8262354 50.56135911 92.375 46.0625 C90.828125 45.19625 90.828125 45.19625 89.25 44.3125 C88.26 44.6425 87.27 44.9725 86.25 45.3125 C88.2352101 52.08026172 90.11980801 58.22570534 96.25 62.3125 C95.59 62.3125 94.93 62.3125 94.25 62.3125 C94.12625 63.26125 94.0025 64.21 93.875 65.1875 C93.25 68.3125 93.25 68.3125 91.25 70.3125 C90.25 68.3125 90.25 68.3125 90.875 66.0625 C91.60793102 62.61845791 91.60793102 62.61845791 88.25 57.3125 C87.59 65.2325 86.93 73.1525 86.25 81.3125 C83.25 80.3125 83.25 80.3125 81.828125 77.87890625 C81.38984375 76.88761719 80.9515625 75.89632812 80.5 74.875 C80.05140625 73.88628906 79.6028125 72.89757812 79.140625 71.87890625 C78.84671875 71.03199219 78.5528125 70.18507813 78.25 69.3125 C78.58 68.6525 78.91 67.9925 79.25 67.3125 C81.23 70.7775 81.23 70.7775 83.25 74.3125 C86.84531736 62.62771859 85.9810273 50.28188964 81.2734375 38.96484375 C80.76683594 38.14693359 80.76683594 38.14693359 80.25 37.3125 C79.59 37.168125 78.93 37.02375 78.25 36.875 C77.26 36.5965625 77.26 36.5965625 76.25 36.3125 C75.96769531 35.55453125 75.68539062 34.7965625 75.39453125 34.015625 C70.36730426 22.14244727 50.54047409 14.53589538 39.06640625 9.7890625 C32.57592155 7.21360189 26.28608425 5.10004275 19.25 5.3125 C20.27738281 5.61542969 21.30476562 5.91835937 22.36328125 6.23046875 C40.05866922 11.53758535 55.0482888 19.31141432 69.25 31.3125 C70.45829232 32.31254956 71.66661896 33.31255765 72.875 34.3125 C73.65875 34.9725 74.4425 35.6325 75.25 36.3125 C74.26 37.3025 74.26 37.3025 73.25 38.3125 C72.62996094 37.70664063 72.00992188 37.10078125 71.37109375 36.4765625 C55.76373917 21.70977869 37.48800293 11.47865692 16.25 7.3125 C15.45851563 7.11011719 14.66703125 6.90773438 13.8515625 6.69921875 C-10.95590501 0.9473296 -38.19022306 6.63766438 -59.625 19.75 C-83.14075874 35.57926446 -99.40185304 56.77550481 -106.75 84.3125 C-106.96398437 85.06273437 -107.17796875 85.81296875 -107.3984375 86.5859375 C-110.41083652 97.63140058 -109.80603059 108.84578698 -109.62304688 120.1796875 C-109.61208984 121.4378125 -109.60113281 122.6959375 -109.58984375 123.9921875 C-109.57300537 125.13413574 -109.55616699 126.27608398 -109.53881836 127.45263672 C-109.75 130.3125 -109.75 130.3125 -111.75 133.3125 C-115.55198961 103.66311327 -111.23098165 72.91210583 -93.23486328 48.23486328 C-90.89769247 45.28253077 -88.44687024 42.45817586 -85.90234375 39.68359375 C-83.73819806 37.51392495 -83.73819806 37.51392495 -82.75 35.3125 C-103.52984745 56.5786843 -114.97805309 81.99241125 -116.25 111.8125 C-116.48744386 117.37923935 -116.86229026 122.8086996 -117.75 128.3125 C-118.08 128.3125 -118.41 128.3125 -118.75 128.3125 C-119.71586427 95.18707054 -113.84976221 65.43982754 -90.75 40.3125 C-90.28110352 39.7959082 -89.81220703 39.27931641 -89.32910156 38.74707031 C-66.65869182 14.02238396 -33.38648736 0.15056748 0 0 Z " fill="#525252" transform="translate(253.75,96.6875)"/>
<path d="M0 0 C3 0 3 0 6 2 C7.28926387 4.19933249 8.07298545 6.2414134 8.8125 8.6875 C9.204375 9.450625 9.59625 10.21375 10 11 C11.65709947 11.3780347 13.32618981 11.70462173 15 12 C25.62683711 15.94107866 33.00704326 23.19526441 38.22265625 33.15234375 C39 35 39 35 39 37 C31.08576758 36.39121289 24.95984346 31.9124193 19 27 C19.33773438 27.90621094 19.67546875 28.81242187 20.0234375 29.74609375 C20.46945312 30.96425781 20.91546875 32.18242187 21.375 33.4375 C21.81585938 34.63246094 22.25671875 35.82742187 22.7109375 37.05859375 C25.8699117 46.4377554 26.25806626 54.92200608 25.875 64.8125 C25.85077972 65.49708282 25.82655945 66.18166565 25.80160522 66.88699341 C24.57744159 99.65569976 14.02637744 124.7995905 -8 149 C-8 145.37194033 -7.44555767 145.12514601 -5 142.625 C12.04854354 123.78549835 20.40699793 96.58261606 20.375 71.5 C20.37556396 70.36578613 20.37612793 69.23157227 20.37670898 68.06298828 C20.27637961 60.2899286 19.36667409 53.13118258 17.49804688 45.60009766 C15.87466809 39.018481 15.44757885 32.69440902 15.2734375 25.9296875 C15.18320312 24.96289062 15.09296875 23.99609375 15 23 C14.34 22.67 13.68 22.34 13 22 C13.33 22.99 13.66 23.98 14 25 C14.91891506 37.94357503 13.36974022 48.81154602 9 61 C8.01 61 7.02 61 6 61 C3.26282403 53.89637665 2.698372 47.09407864 2.6875 39.5625 C2.68234375 38.68625977 2.6771875 37.81001953 2.671875 36.90722656 C2.75049555 29.63763388 2.75049555 29.63763388 5 26 C5.66 25.67 6.32 25.34 7 25 C7.73075648 22.6859378 8.40138258 20.35171131 9 18 C8.34 18 7.68 18 7 18 C0.29612756 6.66287016 0.29612756 6.66287016 0 0 Z " fill="#585858" transform="translate(339,140)"/>
<path d="M0 0 C0.99 0.33 1.98 0.66 3 1 C3.03867187 2.40185547 3.03867187 2.40185547 3.078125 3.83203125 C3.40738109 11.45730308 4.23940107 18.46408695 6.0625 25.875 C12.80003572 54.78575377 6.09466912 85.0542339 -8.88964844 110.2734375 C-11.34175844 114.08639307 -14.23863157 117.51053949 -17.21484375 120.92578125 C-19.03912798 122.87451618 -19.03912798 122.87451618 -20 125 C-7.28437491 111.95370854 1.49200968 96.91660674 6.75 79.4375 C6.94883789 78.7777417 7.14767578 78.1179834 7.35253906 77.43823242 C10.36511333 66.83092226 11.32667774 56.23820322 11.625 45.25 C11.68300781 43.47109375 11.68300781 43.47109375 11.7421875 41.65625 C11.83526085 38.77097625 11.92108941 35.88568979 12 33 C12.66 33.33 13.32 33.66 14 34 C15.16601019 70.03419958 7.06781097 99.60215886 -18.02319336 126.40893555 C-39.11322751 148.23811455 -71.01829874 161.63301211 -101.23364258 162.47485352 C-129.4427593 162.69626166 -156.77087757 154.11053384 -178 135 C-178.4640625 134.45472656 -178.928125 133.90945313 -179.40625 133.34765625 C-181.67934162 131.42555672 -183.77333211 131.25819627 -186.6875 130.8125 C-187.68136719 130.65394531 -188.67523438 130.49539063 -189.69921875 130.33203125 C-190.45847656 130.22246094 -191.21773437 130.11289062 -192 130 C-192 129.67 -192 129.34 -192 129 C-191.195625 128.87625 -190.39125 128.7525 -189.5625 128.625 C-188.716875 128.41875 -187.87125 128.2125 -187 128 C-186.505 127.01 -186.505 127.01 -186 126 C-186.556875 125.773125 -187.11375 125.54625 -187.6875 125.3125 C-190.68041199 123.61382022 -192.73527237 121.57927313 -195 119 C-195 118.01 -195 117.02 -195 116 C-193.68 116.33 -192.36 116.66 -191 117 C-191.20496094 116.39671875 -191.40992188 115.7934375 -191.62109375 115.171875 C-191.89050781 114.37265625 -192.15992188 113.5734375 -192.4375 112.75 C-192.70433594 111.96109375 -192.97117188 111.1721875 -193.24609375 110.359375 C-193.91954708 108.25178012 -194.49150595 106.15246027 -195 104 C-194.67 104 -194.34 104 -194 104 C-193.67 102.02 -193.34 100.04 -193 98 C-192.67 98 -192.34 98 -192 98 C-191.81824219 99.14597656 -191.63648438 100.29195313 -191.44921875 101.47265625 C-191.19577898 103.00268151 -190.94184643 104.5326252 -190.6875 106.0625 C-190.56955078 106.81466797 -190.45160156 107.56683594 -190.33007812 108.34179688 C-189.49325111 113.29838764 -188.15466601 117.4552843 -186 122 C-186.16371094 121.20335937 -186.32742187 120.40671875 -186.49609375 119.5859375 C-187.10791538 115.23204401 -187.10799591 111.0136058 -187.0625 106.625 C-187.05798828 105.79355469 -187.05347656 104.96210938 -187.04882812 104.10546875 C-187.03713164 102.07028103 -187.01919935 100.03513077 -187 98 C-186.67 98 -186.34 98 -186 98 C-185.87882813 99.29035156 -185.75765625 100.58070313 -185.6328125 101.91015625 C-185.46387992 103.62763747 -185.29459013 105.34508358 -185.125 107.0625 C-185.04636719 107.91005859 -184.96773437 108.75761719 -184.88671875 109.63085938 C-184.38479141 114.63082783 -183.70041519 119.25773097 -182 124 C-181.34 124.33 -180.68 124.66 -180 125 C-180.103125 125.72703125 -180.20625 126.4540625 -180.3125 127.203125 C-179.80846074 131.71427641 -176.77644231 133.31984537 -173.390625 136.0456543 C-166.75708762 141.2081363 -159.47935235 145.20896008 -152 149 C-151.03835937 149.49371094 -150.07671875 149.98742187 -149.0859375 150.49609375 C-138.37147671 155.45191783 -123.89889383 159.69642355 -112 159 C-112 158.67 -112 158.34 -112 158 C-111.03513672 157.97812622 -111.03513672 157.97812622 -110.05078125 157.95581055 C-75.3466073 157.08016136 -47.51460083 149.38490175 -22.87890625 124 C-18.62631433 119.7429291 -18.62631433 119.7429291 -16.5 114.3125 C-16.335 113.549375 -16.17 112.78625 -16 112 C-15.37544922 111.69578125 -14.75089844 111.3915625 -14.10742188 111.078125 C-11.63388998 109.81270368 -11.04325418 108.87294667 -9.78125 106.4375 C-9.40830811 105.72883789 -9.03536621 105.02017578 -8.65112305 104.29003906 C-8.27125244 103.53432617 -7.89138184 102.77861328 -7.5 102 C-7.10272705 101.22108398 -6.7054541 100.44216797 -6.29614258 99.63964844 C-5.18230238 97.43357814 -4.08927268 95.2182724 -3 93 C-2.34064453 91.70835937 -2.34064453 91.70835937 -1.66796875 90.390625 C7.22438286 70.97624778 8.88501561 42.21288987 2 22 C1.34 21.67 0.68 21.34 0 21 C0 14.07 0 7.14 0 0 Z " fill="#606060" transform="translate(352,162)"/>
<path d="M0 0 C2.29614156 2.11900829 3.77882973 4.14353164 5.2265625 6.90625 C5.814375 8.02193359 5.814375 8.02193359 6.4140625 9.16015625 C6.81367188 9.93230469 7.21328125 10.70445312 7.625 11.5 C8.03234375 12.27214844 8.4396875 13.04429687 8.859375 13.83984375 C11.88351332 19.6177504 13.13815557 23.66236003 13.125 30.3125 C13.12757813 31.60800781 13.13015625 32.90351563 13.1328125 34.23828125 C13 38 13 38 12.30078125 41.24609375 C11.72537025 43.98224962 11.72537025 43.98224962 13.16015625 45.984375 C31.13708112 62.66932375 53.02405821 74.746202 77.671875 77.39453125 C81.02325229 78.00423017 82.53052914 78.72808681 85 81 C69.76705988 82.4461652 52.48936507 77.91669457 39 71 C38.09290283 70.54415527 38.09290283 70.54415527 37.16748047 70.07910156 C29.42555868 66.14240198 22.22256966 61.76859726 15.5 56.25 C14.66287476 55.57880127 14.66287476 55.57880127 13.80883789 54.89404297 C11.27255765 52.70920191 10.06783643 51.5581088 9.65625 48.171875 C9.7696875 47.45515625 9.883125 46.7384375 10 46 C9.34 46 8.68 46 8 46 C6.68272247 40.9943454 5.64187918 36.13503344 5 31 C5.33 35.62 5.66 40.24 6 45 C-1.47460833 35.03385556 -2.75573018 20.94788251 -1.421875 8.83203125 C-0.98235813 5.88157076 -0.50522716 2.93989943 0 0 Z " fill="#5E5E5E" transform="translate(161,241)"/>
<path d="M0 0 C20.04010058 -0.82533233 42.89706655 13.25051225 57.22265625 26.203125 C59 28 59 28 61 31 C61.639375 31.53625 62.27875 32.0725 62.9375 32.625 C69.60310987 40.30055076 69.52761072 52.39257687 69 62 C68.50158444 65.08150838 67.80577932 67.97832754 67 71 C64.75003089 68.79378029 62.85505526 66.55070099 61 64 C60.505 63.401875 60.01 62.80375 59.5 62.1875 C54.30270982 54.60811849 53.98090671 47.18424133 55.45703125 38.2265625 C55.91496114 36.13787511 56.44904068 34.06609744 57 32 C41.54719816 18.44342109 25.64450559 9.2207601 6 3 C3.99887102 2.33672988 1.99846215 1.67126259 0 1 C0 0.67 0 0.34 0 0 Z " fill="#666666" transform="translate(271,101)"/>
<path d="M0 0 C0.99 0.33 1.98 0.66 3 1 C3.02578125 1.93457031 3.0515625 2.86914062 3.078125 3.83203125 C3.40738109 11.45730308 4.23940107 18.46408695 6.0625 25.875 C12.80003572 54.78575377 6.09466912 85.0542339 -8.88964844 110.2734375 C-11.34175844 114.08639307 -14.23863157 117.51053949 -17.21484375 120.92578125 C-19.03912798 122.87451618 -19.03912798 122.87451618 -20 125 C-7.28437491 111.95370854 1.49200968 96.91660674 6.75 79.4375 C7.04825684 78.44786255 7.04825684 78.44786255 7.35253906 77.43823242 C10.36511333 66.83092226 11.32667774 56.23820322 11.625 45.25 C11.66367187 44.0640625 11.70234375 42.878125 11.7421875 41.65625 C11.83526085 38.77097625 11.92108941 35.88568979 12 33 C12.99 33.495 12.99 33.495 14 34 C15.09871766 67.9546014 8.36182641 98.00896563 -15.44091797 123.54589844 C-17.0078959 125.19208625 -18.59183652 126.8191181 -20.1875 128.4375 C-20.68668945 128.94611572 -21.18587891 129.45473145 -21.70019531 129.97875977 C-24.56431079 132.81762605 -27.27282886 135.39566938 -31 137 C-33.3125 136.1875 -33.3125 136.1875 -35 135 C-34.53851563 134.62230469 -34.07703125 134.24460937 -33.6015625 133.85546875 C-22.87077201 125.4740984 -22.87077201 125.4740984 -16.46484375 114.2890625 C-16.31144531 113.53367187 -16.15804688 112.77828125 -16 112 C-15.37617432 111.69626465 -14.75234863 111.3925293 -14.10961914 111.07958984 C-11.63474352 109.81308134 -11.04395955 108.8743079 -9.78125 106.4375 C-9.40830811 105.72883789 -9.03536621 105.02017578 -8.65112305 104.29003906 C-8.27125244 103.53432617 -7.89138184 102.77861328 -7.5 102 C-7.10272705 101.22108398 -6.7054541 100.44216797 -6.29614258 99.63964844 C-5.18230238 97.43357814 -4.08927268 95.2182724 -3 93 C-2.56042969 92.13890625 -2.12085938 91.2778125 -1.66796875 90.390625 C7.22438286 70.97624778 8.88501561 42.21288987 2 22 C1.34 21.67 0.68 21.34 0 21 C0 14.07 0 7.14 0 0 Z " fill="#5E5E5E" transform="translate(352,162)"/>
<path d="M0 0 C3.05267097 2.03818817 4.56383134 3.28324701 6.625 6.375 C5.94824219 6.09914062 5.27148438 5.82328125 4.57421875 5.5390625 C-18.97210354 -3.75471769 -41.028181 -0.42487819 -65.47875977 3.92749023 C-68.1156533 4.3349273 -70.56703712 4.50399709 -73.23046875 4.5078125 C-74.09994141 4.50910156 -74.96941406 4.51039063 -75.86523438 4.51171875 C-76.75533203 4.50785156 -77.64542969 4.50398437 -78.5625 4.5 C-79.46419922 4.50386719 -80.36589844 4.50773438 -81.29492188 4.51171875 C-82.16052734 4.51042969 -83.02613281 4.50914062 -83.91796875 4.5078125 C-84.70196045 4.50668457 -85.48595215 4.50555664 -86.29370117 4.50439453 C-88.375 4.375 -88.375 4.375 -91.375 3.375 C-91.045 2.715 -90.715 2.055 -90.375 1.375 C-89.29863281 1.40980469 -88.22226563 1.44460937 -87.11328125 1.48046875 C-76.66351523 1.72004288 -67.61900629 0.53143806 -57.58984375 -2.45410156 C-36.50946518 -8.7267674 -19.58508783 -12.07405284 0 0 Z " fill="#E4BC52" transform="translate(317.375,236.625)"/>
<path d="M0 0 C0 3.96995156 -1.25631737 4.58497138 -4 7.375 C-21.80499303 26.6590912 -30.20780484 52.82929224 -30.1875 78.6875 C-30.18669434 79.75025146 -30.18588867 80.81300293 -30.18505859 81.90795898 C-30.11667563 90.6777392 -29.62261264 99.04201694 -26.875 107.4375 C-25.45462924 113.22043811 -25.85207295 119.0746997 -26 125 C-35.3613174 115.6386826 -35.22174301 94.0986244 -35.375 81.9375 C-35.35907399 55.223609 -26.83864505 30.13604631 -9 10 C-8.175 9.06671875 -7.35 8.1334375 -6.5 7.171875 C-4.34940045 4.76589175 -2.18376782 2.37585851 0 0 Z " fill="#F5F5F5" transform="translate(172,130)"/>
<path d="M0 0 C3.34767843 3.67951827 4.32004791 7.74476774 5.5625 12.4375 C5.8867395 13.65228027 5.8867395 13.65228027 6.2175293 14.89160156 C13.77109292 43.88763201 10.87438366 74.19007529 -3.9375 100.4375 C-9.26417731 109.51683409 -15.93719476 117.24008671 -23 125 C-23 121.37194033 -22.44555767 121.12514601 -20 118.625 C-2.95145811 99.78550017 5.40700033 72.58261437 5.375 47.5 C5.37556396 46.36651123 5.37612793 45.23302246 5.37670898 44.06518555 C5.2656123 35.46217421 4.00213352 27.63480291 1.95703125 19.3125 C0.43171247 12.95196389 0.19492762 6.52032878 0 0 Z " fill="#F7F7F7" transform="translate(354,164)"/>
<path d="M0 0 C0.99 0.33 1.98 0.66 3 1 C1.00700013 4.6538331 -1.39638096 7.60562339 -4.12890625 10.7265625 C-8.39847726 15.91422498 -12.19987797 21.46383932 -16 27 C-16.58265625 27.84691406 -17.1653125 28.69382813 -17.765625 29.56640625 C-30.10940621 48.76423439 -32.23205736 70.63029586 -31.87304688 92.8671875 C-31.86208984 94.1253125 -31.85113281 95.3834375 -31.83984375 96.6796875 C-31.82300537 97.82163574 -31.80616699 98.96358398 -31.78881836 100.14013672 C-32 103 -32 103 -34 106 C-37.80198961 76.35061327 -33.48098165 45.59960583 -15.48486328 20.92236328 C-13.14769247 17.97003077 -10.69687024 15.14567586 -8.15234375 12.37109375 C-5.98819806 10.20142495 -5.98819806 10.20142495 -5 8 C-25.77984745 29.2661843 -37.22805309 54.67991125 -38.5 84.5 C-38.73744386 90.06673935 -39.11229026 95.4961996 -40 101 C-40.33 101 -40.66 101 -41 101 C-41.96228789 67.99722645 -36.16941473 37.97897086 -13 13 C-8.74751574 8.58391062 -4.39552401 4.27323741 0 0 Z " fill="#5F5F5F" transform="translate(176,124)"/>
<path d="M0 0 C18.80597471 0.68385363 39.83736917 11.83736917 53 25 C55.01311449 25.39569108 57.03597208 25.74252191 59.0625 26.0625 C60.16722656 26.23910156 61.27195312 26.41570312 62.41015625 26.59765625 C63.26480469 26.73042969 64.11945313 26.86320312 65 27 C65 27.33 65 27.66 65 28 C64.195625 28.12375 63.39125 28.2475 62.5625 28.375 C61.716875 28.58125 60.87125 28.7875 60 29 C59.67 29.66 59.34 30.32 59 31 C59.57234375 31.24878906 60.1446875 31.49757812 60.734375 31.75390625 C63.3264509 33.179548 65.12424427 34.884387 67.25 36.9375 C71.99681577 41.25349915 76.37967902 44 83 44 C82.01 43.01 81.02 42.02 80 41 C80.99 41 81.98 41 83 41 C80.36 38.36 77.72 35.72 75 33 C78 33 78 33 79.76171875 34.5390625 C80.39722656 35.22742188 81.03273438 35.91578125 81.6875 36.625 C85.06150748 40.14924158 88.5501843 43.06138007 92.53125 45.87109375 C93.0159375 46.24363281 93.500625 46.61617187 94 47 C94 47.33 94 47.66 94 48 C85.35217908 48.48745546 78.5762354 47.24885911 71.125 42.75 C69.578125 41.88375 69.578125 41.88375 68 41 C66.515 41.495 66.515 41.495 65 42 C66.9852101 48.76776172 68.86980801 54.91320534 75 59 C74.34 59 73.68 59 73 59 C72.87625 59.94875 72.7525 60.8975 72.625 61.875 C72 65 72 65 70 67 C69 65 69 65 69.625 62.75 C70.35793102 59.30595791 70.35793102 59.30595791 67 54 C66.34 61.92 65.68 69.84 65 78 C62 77 62 77 60.578125 74.56640625 C60.13984375 73.57511719 59.7015625 72.58382812 59.25 71.5625 C58.80140625 70.57378906 58.3528125 69.58507812 57.890625 68.56640625 C57.59671875 67.71949219 57.3028125 66.87257813 57 66 C57.33 65.34 57.66 64.68 58 64 C59.98 67.465 59.98 67.465 62 71 C65.59531736 59.31521859 64.7310273 46.96938964 60.0234375 35.65234375 C59.68570313 35.10707031 59.34796875 34.56179687 59 34 C58.34 33.855625 57.68 33.71125 57 33.5625 C56.34 33.376875 55.68 33.19125 55 33 C54.57654297 31.86304688 54.57654297 31.86304688 54.14453125 30.703125 C49.14812967 18.90274994 29.45576786 11.28239792 18.03515625 6.54296875 C12.15981111 4.21936175 6.12280279 2.54026758 0 1 C0 0.67 0 0.34 0 0 Z " fill="#585858" transform="translate(275,100)"/>
<path d="M0 0 C1.32 0 2.64 0 4 0 C6.85606307 14.67829134 4.99499511 28.06753148 0 42 C-0.99 42 -1.98 42 -3 42 C-5.73717597 34.89637665 -6.301628 28.09407864 -6.3125 20.5625 C-6.31765625 19.68625977 -6.3228125 18.81001953 -6.328125 17.90722656 C-6.24950445 10.63763388 -6.24950445 10.63763388 -4 7 C-3.34 6.67 -2.68 6.34 -2 6 C-1.27306096 4.02111039 -0.60183749 2.02045442 0 0 Z " fill="#646464" transform="translate(348,159)"/>
<path d="M0 0 C3.91660106 -0.05906707 7.83308457 -0.09394858 11.75 -0.125 C12.84183594 -0.14175781 13.93367187 -0.15851563 15.05859375 -0.17578125 C22.57356933 -0.22024856 29.63271981 0.52221223 37 2 C34 4 34 4 32 5 C33.02738281 5.30292969 34.05476563 5.60585937 35.11328125 5.91796875 C52.80866922 11.22508535 67.7982888 18.99891432 82 31 C83.20829232 32.00004956 84.41661896 33.00005765 85.625 34 C86.40875 34.66 87.1925 35.32 88 36 C87.01 36.99 87.01 36.99 86 38 C85.06994141 37.09121094 85.06994141 37.09121094 84.12109375 36.1640625 C68.57146943 21.45189975 50.21157002 11.0301983 29 7 C27.95328125 6.79761719 26.9065625 6.59523438 25.828125 6.38671875 C23.22207596 5.90056493 20.61458738 5.43748017 18 5 C18 4.67 18 4.34 18 4 C14.37 3.67 10.74 3.34 7 3 C7 2.67 7 2.34 7 2 C4.69 1.67 2.38 1.34 0 1 C0 0.67 0 0.34 0 0 Z " fill="#6A6A6A" transform="translate(241,97)"/>
<path d="M0 0 C9.19230769 0 9.19230769 0 13 3 C14.59616743 6.19233485 14.51466114 9.53461497 14 13 C12.12984906 15.43119623 10.71861655 16.64069173 8 18 C5.36 18 2.72 18 0 18 C0 12.06 0 6.12 0 0 Z " fill="#F9F9F9" transform="translate(219,343)"/>
<path d="M0 0 C18.81 0 37.62 0 57 0 C60 14 60 14 59 18 C58.41605469 17.22076172 58.41605469 17.22076172 57.8203125 16.42578125 C51.50751729 8.55660566 42.91029195 3.90430981 32.8359375 2.5859375 C22.21589881 1.93866652 11.63650349 1.90281367 1 2 C0.67 1.34 0.34 0.68 0 0 Z " fill="#575757" transform="translate(205,186)"/>
<path d="M0 0 C1.18998121 0.8716226 2.37681214 1.74754599 3.5625 2.625 C4.22378906 3.11226563 4.88507813 3.59953125 5.56640625 4.1015625 C7.55054235 5.64937974 9.42812601 7.24266437 11.31640625 8.90234375 C28.87961308 24.03372195 52.00326166 32.53988963 75 34 C75 34.33 75 34.66 75 35 C59.76705988 36.4461652 42.48936507 31.91669457 29 25 C28.39526855 24.69610352 27.79053711 24.39220703 27.16748047 24.07910156 C19.42555868 20.14240198 12.22256966 15.76859726 5.5 10.25 C4.9419165 9.80253418 4.38383301 9.35506836 3.80883789 8.89404297 C1.27255765 6.70920191 0.06783643 5.5581088 -0.34375 2.171875 C-0.2303125 1.45515625 -0.116875 0.7384375 0 0 Z " fill="#F1F1F1" transform="translate(171,287)"/>
<path d="M0 0 C-8.09216223 9.1711172 -19.93863807 13.45145672 -31 18 C-31.97195313 18.40476562 -32.94390625 18.80953125 -33.9453125 19.2265625 C-45.63239031 23.79673323 -57.49343805 25.56943874 -70 25 C-70 24.67 -70 24.34 -70 24 C-73.63 23.67 -77.26 23.34 -81 23 C-81 22.67 -81 22.34 -81 22 C-80.35675781 21.98541748 -79.71351563 21.97083496 -79.05078125 21.95581055 C-53.61574057 21.31403839 -27.69723978 18.37125081 -7.21484375 1.73828125 C-4.5891347 -0.32246042 -3.25655945 -0.37217822 0 0 Z " fill="#4F4F4F" transform="translate(321,298)"/>
<path d="M0 0 C19.9243806 -0.82056651 41.81995165 13.05246529 56.63671875 25.2265625 C58.4342727 27.56492781 58.2600435 29.12480206 58 32 C54.02816614 29.5310222 50.50876108 26.77304117 46.9375 23.75 C33.01383878 12.33409497 17.32660251 5.5710886 0 1 C0 0.67 0 0.34 0 0 Z " fill="#EEEEEE" transform="translate(271,101)"/>
<path d="M0 0 C1.758187 1.758187 3.37964065 3.55383226 5 5.4375 C5.515625 6.03433594 6.03125 6.63117188 6.5625 7.24609375 C8 9 8 9 10 12 C9.01 12 8.02 12 7 12 C7.99 12.99 8.98 13.98 10 15 C0.66015737 14.22167978 -4.99474913 10.51559805 -11.3359375 3.70703125 C-12.90476973 1.91082628 -12.90476973 1.91082628 -15 1 C-14.67 0.01 -14.34 -0.98 -14 -2 C-8.97424715 -3.78333166 -4.67364524 -2.08431723 0 0 Z " fill="#646464" transform="translate(349,130)"/>
<path d="M0 0 C0.99 0.33 1.98 0.66 3 1 C3.02578125 1.93457031 3.0515625 2.86914062 3.078125 3.83203125 C3.40738109 11.45730308 4.23940107 18.46408695 6.0625 25.875 C10.33239605 44.19711632 8.86548525 62.97163949 4 81 C3.34 80.67 2.68 80.34 2 80 C2.13277344 79.28714844 2.26554687 78.57429688 2.40234375 77.83984375 C2.57894531 76.88207031 2.75554687 75.92429687 2.9375 74.9375 C3.11152344 73.99777344 3.28554688 73.05804688 3.46484375 72.08984375 C3.64144531 71.07019531 3.81804687 70.05054688 4 69 C4.18175781 67.97003906 4.36351562 66.94007813 4.55078125 65.87890625 C6.18164302 51.79676938 6.62807365 35.58700521 2 22 C1.34 21.67 0.68 21.34 0 21 C0 14.07 0 7.14 0 0 Z " fill="#676767" transform="translate(352,162)"/>
<path d="M0 0 C0.33 0 0.66 0 1 0 C1.18175781 1.14597656 1.36351562 2.29195313 1.55078125 3.47265625 C1.80422102 5.00268151 2.05815357 6.5326252 2.3125 8.0625 C2.48942383 9.19075195 2.48942383 9.19075195 2.66992188 10.34179688 C3.50674889 15.29838764 4.84533399 19.4552843 7 24 C6.75443359 22.80503906 6.75443359 22.80503906 6.50390625 21.5859375 C5.89208462 17.23204401 5.89200409 13.0136058 5.9375 8.625 C5.94201172 7.79355469 5.94652344 6.96210938 5.95117188 6.10546875 C5.96286836 4.07028103 5.98080065 2.03513077 6 0 C6.33 0 6.66 0 7 0 C7.12117187 1.29035156 7.24234375 2.58070313 7.3671875 3.91015625 C7.53612008 5.62763747 7.70540987 7.34508358 7.875 9.0625 C7.95363281 9.91005859 8.03226563 10.75761719 8.11328125 11.63085938 C8.61520859 16.63082783 9.29958481 21.25773097 11 26 C11.66 26.33 12.32 26.66 13 27 C12.979375 27.78375 12.95875 28.5675 12.9375 29.375 C12.81315937 31.98114961 12.81315937 31.98114961 14 34 C9.71 33.34 5.42 32.68 1 32 C1 31.67 1 31.34 1 31 C1.804375 30.87625 2.60875 30.7525 3.4375 30.625 C4.283125 30.41875 5.12875 30.2125 6 30 C6.33 29.34 6.66 28.68 7 28 C6.443125 27.773125 5.88625 27.54625 5.3125 27.3125 C2.31958801 25.61382022 0.26472763 23.57927313 -2 21 C-2 20.01 -2 19.02 -2 18 C-0.68 18.33 0.64 18.66 2 19 C1.79503906 18.39671875 1.59007812 17.7934375 1.37890625 17.171875 C0.97478516 15.97304688 0.97478516 15.97304688 0.5625 14.75 C0.29566406 13.96109375 0.02882812 13.1721875 -0.24609375 12.359375 C-0.91954708 10.25178012 -1.49150595 8.15246027 -2 6 C-1.67 6 -1.34 6 -1 6 C-0.67 4.02 -0.34 2.04 0 0 Z " fill="#545454" transform="translate(159,260)"/>
<path d="M0 0 C4.18773998 4.18773998 4.125 12.49243716 4.125 18.25 C4.08375 19.1575 4.0425 20.065 4 21 C3.484375 20.29875 2.96875 19.5975 2.4375 18.875 C-2.16081633 13.45134484 -7.96965516 7.4445804 -15.38671875 6.7890625 C-19.21001069 6.73191314 -22.73023081 6.95182693 -26.5 7.625 C-27.325 7.74875 -28.15 7.8725 -29 8 C-29.66 7.34 -30.32 6.68 -31 6 C-28.09585347 5.17579445 -25.45979164 4.85704889 -22.4453125 4.7890625 C-21.58292969 4.76070312 -20.72054687 4.73234375 -19.83203125 4.703125 C-18.03535904 4.65127299 -16.23845343 4.60693355 -14.44140625 4.5703125 C-9.07851481 4.37849522 -4.04181714 4.04181714 0 0 Z " fill="#E4BF58" transform="translate(235,132)"/>
<path d="M0 0 C2.97 0 5.94 0 9 0 C12 3 12 3 12.3125 5.5625 C12 8 12 8 10 10 C9.01 10 8.02 10 7 10 C8.65 12.64 10.3 15.28 12 18 C11.01 18 10.02 18 9 18 C7.64721885 16.01310269 6.31431695 14.01254782 5 12 C4.01 11.67 3.02 11.34 2 11 C2 13.31 2 15.62 2 18 C1.34 18 0.68 18 0 18 C0 12.06 0 6.12 0 0 Z " fill="#757575" transform="translate(143,343)"/>
<path d="M0 0 C7.40790347 9.47677741 10.25521446 17.97561607 9 30 C8.49783176 33.09251938 7.83473004 35.97410359 7 39 C1.25781264 33.25781264 2.65530099 19.44464517 2.34375 11.53125 C2.02275682 8.23377464 1.30981661 5.99990256 0 3 C0 2.01 0 1.02 0 0 Z " fill="#F1F1F1" transform="translate(163,248)"/>
<path d="M0 0 C0.33 0 0.66 0 1 0 C2.7974206 6.5905422 3.28983875 12.88467021 3.60302734 19.66943359 C3.88685088 25.24799134 4.62700523 30.57467115 6 36 C3.3572932 33.64320008 1.92821105 31.23085997 0.375 28.0625 C-0.05039062 27.20785156 -0.47578125 26.35320312 -0.9140625 25.47265625 C-3.97399712 18.50525115 -4.19489025 10.44378977 -1.5 3.3125 C-1.005 2.219375 -0.51 1.12625 0 0 Z " fill="#F5F5F5" transform="translate(331,134)"/>
<path d="M0 0 C0.33 0 0.66 0 1 0 C1 7.92 1 15.84 1 24 C-0.32 22.35 -1.64 20.7 -3 19 C-5.41432784 16.82710494 -7.04906831 15.98460602 -10.1875 15 C-11.115625 14.67 -12.04375 14.34 -13 14 C-13.33 13.01 -13.66 12.02 -14 11 C-12.783125 10.62875 -11.56625 10.2575 -10.3125 9.875 C-5.18104863 7.97345153 -2.45981263 4.91962527 0 0 Z " fill="#525252" transform="translate(245,211)"/>
<path d="M0 0 C3.0376204 0.73490816 4.82717417 2.22652881 6.9375 4.46875 C6.9375 5.12875 6.9375 5.78875 6.9375 6.46875 C5.9475 6.13875 4.9575 5.80875 3.9375 5.46875 C3.9375 4.80875 3.9375 4.14875 3.9375 3.46875 C0.3075 3.46875 -3.3225 3.46875 -7.0625 3.46875 C-7.4028125 5.6034375 -7.4028125 5.6034375 -7.75 7.78125 C-7.87761719 8.58175781 -8.00523437 9.38226563 -8.13671875 10.20703125 C-8.26958117 12.52368199 -8.26958117 12.52368199 -6.80078125 14.23828125 C-3.93832976 16.26451096 -1.44484094 15.83114367 1.9375 15.46875 C3.88119738 14.11445159 3.88119738 14.11445159 4.9375 12.46875 C2.6275 12.13875 0.3175 11.80875 -2.0625 11.46875 C-2.0625 10.80875 -2.0625 10.14875 -2.0625 9.46875 C1.2375 9.46875 4.5375 9.46875 7.9375 9.46875 C7.65647086 12.84109971 7.13378348 14.25514739 4.8125 16.78125 C1.16054466 18.92478901 -0.8866224 19.06530394 -5.0625 18.46875 C-8.00604571 16.93298702 -9.56142777 15.77710527 -10.765625 12.6328125 C-11.38213237 9.65302686 -11.47738082 7.44712567 -10.27734375 4.6171875 C-7.43560829 0.55206085 -4.67135534 -0.35389056 0 0 Z " fill="#5F5F5F" transform="translate(299.0625,342.53125)"/>
<path d="M0 0 C2.72772048 2.72772048 3.7460131 5.97005745 5.125 9.5 C5.40214844 10.18964844 5.67929688 10.87929688 5.96484375 11.58984375 C8 16.73287408 8 16.73287408 8 19 C7.34 19 6.68 19 6 19 C5.835 18.360625 5.67 17.72125 5.5 17.0625 C4.218214 14.83880759 4.218214 14.83880759 2.0859375 14.51171875 C0.06424845 14.2724022 -1.96841939 14.13106972 -4 14 C-4.33 15.65 -4.66 17.3 -5 19 C-5.99 18.67 -6.98 18.34 -8 18 C-6.85718854 15.18623705 -5.71091259 12.37397584 -4.5625 9.5625 C-4.23701172 8.76005859 -3.91152344 7.95761719 -3.57617188 7.13085938 C-3.10727539 5.98520508 -3.10727539 5.98520508 -2.62890625 4.81640625 C-2.34088135 4.10943604 -2.05285645 3.40246582 -1.75610352 2.67407227 C-1 1 -1 1 0 0 Z " fill="#676767" transform="translate(165,342)"/>
<path d="M0 0 C5.97577369 0.53957325 11.05237534 1.80056842 16.625 4 C17.40552734 4.30687744 18.18605469 4.61375488 18.99023438 4.92993164 C30.61981416 9.69449928 40.42244714 16.93099942 50 25 C50.64195312 25.53109375 51.28390625 26.0621875 51.9453125 26.609375 C53.30241279 27.73292779 54.65234628 28.86513371 56 30 C55.34 30.66 54.68 31.32 54 32 C53.37996094 31.39414063 52.75992188 30.78828125 52.12109375 30.1640625 C36.86877721 15.73319532 19.88844421 7.40849869 0 1 C0 0.67 0 0.34 0 0 Z " fill="#5C5C5C" transform="translate(273,103)"/>
<path d="M0 0 C2.75979741 3.28585851 4.18309468 6.62228796 5.6875 10.625 C6.12449219 11.77226562 6.56148438 12.91953125 7.01171875 14.1015625 C8 17 8 17 8 19 C7.34 19 6.68 19 6 19 C5.67 17.35 5.34 15.7 5 14 C2.03 14 -0.94 14 -4 14 C-4.33 15.65 -4.66 17.3 -5 19 C-5.66 19 -6.32 19 -7 19 C-6.33392561 14.59041892 -4.73375271 10.73427814 -2.9375 6.6875 C-2.65583984 6.04232422 -2.37417969 5.39714844 -2.08398438 4.73242188 C-1.3937257 3.15301642 -0.69746802 1.57623507 0 0 Z " fill="#5E5E5E" transform="translate(317,342)"/>
<path d="M0 0 C4.44728941 4.44728941 6.88242482 7.74465899 10 13 C10.33 9.04 10.66 5.08 11 1 C11.66 1 12.32 1 13 1 C13 7.27 13 13.54 13 20 C8.85364233 15.85364233 6.16939543 11.89815657 3 7 C2.67 10.96 2.34 14.92 2 19 C1.34 19 0.68 19 0 19 C0 12.73 0 6.46 0 0 Z " fill="#6B6B6B" transform="translate(328,342)"/>
<path d="M0 0 C0.66 0 1.32 0 2 0 C2.99 3.96 3.98 7.92 5 12 C4.01 12.33 3.02 12.66 2 13 C1.80083984 14.32064453 1.80083984 14.32064453 1.59765625 15.66796875 C1.33275391 17.41013672 1.33275391 17.41013672 1.0625 19.1875 C0.80146484 20.91033203 0.80146484 20.91033203 0.53515625 22.66796875 C0.08620687 25.46325212 -0.42082162 28.22933586 -1 31 C-1.66 30.34 -2.32 29.68 -3 29 C-2.79296875 26.20703125 -2.79296875 26.20703125 -2.1875 22.8125 C-1.88779297 21.06839844 -1.88779297 21.06839844 -1.58203125 19.2890625 C-1.38996094 18.20367187 -1.19789063 17.11828125 -1 16 C-0.78385091 14.56365443 -0.57336811 13.126409 -0.375 11.6875 C-0.25125 10.800625 -0.1275 9.91375 0 9 C-1.32 12.63 -2.64 16.26 -4 20 C-4.66 19.67 -5.32 19.34 -6 19 C-4.12275039 12.62267685 -2.14328358 6.29304541 0 0 Z " fill="#626262" transform="translate(153,218)"/>
<path d="M0 0 C19.00418673 0.69106134 38.05469228 11.69728862 52 24 C51.34 24.66 50.68 25.32 50 26 C49.113125 25.175 48.22625 24.35 47.3125 23.5 C33.76241556 11.98242822 17.06154181 5.29204411 0 1 C0 0.67 0 0.34 0 0 Z " fill="#595959" transform="translate(275,100)"/>
<path d="M0 0 C9.19230769 0 9.19230769 0 13 3 C14.59616743 6.19233485 14.51466114 9.53461497 14 13 C12.12984906 15.43119623 10.71861655 16.64069173 8 18 C5.36 18 2.72 18 0 18 C0 12.06 0 6.12 0 0 Z M2 2 C2 6.62 2 11.24 2 16 C7.50785479 16.388057 7.50785479 16.388057 10.375 15 C12.5731703 12.29455964 12.5712063 10.2912076 12.3828125 6.875 C12.11521018 4.82672975 12.11521018 4.82672975 10.375 3 C7.50785479 1.611943 7.50785479 1.611943 2 2 Z " fill="#5B5B5B" transform="translate(219,343)"/>
<path d="M0 0 C3.63 0 7.26 0 11 0 C11 0.66 11 1.32 11 2 C8.36 2 5.72 2 3 2 C3 3.98 3 5.96 3 8 C5.64 8 8.28 8 11 8 C11 8.66 11 9.32 11 10 C8.03 10 5.06 10 2 10 C2 11.98 2 13.96 2 16 C4.97 16 7.94 16 11 16 C11 16.66 11 17.32 11 18 C7.37 18 3.74 18 0 18 C0 12.06 0 6.12 0 0 Z " fill="#6B6B6B" transform="translate(203,343)"/>
<path d="M0 0 C0.66 0 1.32 0 2 0 C2.63248845 10.9490778 1.81985958 18.94715003 -3 29 C-3.33 29 -3.66 29 -4 29 C-4.79836516 18.93172831 -2.38834491 9.69198892 0 0 Z " fill="#EDEDED" transform="translate(155,231)"/>
<path d="M0 0 C4.77673688 3.86688223 5.08125414 10.24839923 6 16 C6.85143593 27.17187143 6.85143593 27.17187143 4 32 C2.23449373 27.39681767 1.63343881 23.13501767 1.4375 18.25 C1.36604439 16.83846695 1.29312749 15.42700711 1.21875 14.015625 C1.18394531 13.33306641 1.14914062 12.65050781 1.11328125 11.94726562 C0.8808607 7.95203655 0.44918874 3.97579821 0 0 Z " fill="#EBEBEB" transform="translate(334,135)"/>
<path d="M0 0 C9.09051324 1.59925696 16.27557124 4.58833537 23 11 C24.875 13.8125 24.875 13.8125 26 16 C20.02573765 14.69385467 16.11581676 12.28010237 11.3125 8.5625 C10.66216797 8.07201172 10.01183594 7.58152344 9.34179688 7.07617188 C7.554416 5.72607072 5.77665994 4.36415423 4 3 C2.66793839 1.99830661 1.33535898 0.99729342 0 0 Z " fill="#EEEEEE" transform="translate(139,273)"/>
<path d="M0 0 C6.47430707 1.6070975 10.74550421 4.16376362 15.84765625 8.4140625 C18.82850931 10.61048055 21.39283173 11.30926565 25 12 C25 12.99 25 13.98 25 15 C22.36 15.33 19.72 15.66 17 16 C17 15.34 17 14.68 17 14 C14.91517909 12.58126501 14.91517909 12.58126501 12.3125 11.1875 C6.95128138 8.07844818 3.46278561 5.19417842 0 0 Z " fill="#676767" transform="translate(140,276)"/>
<path d="M0 0 C0.66 0.66 1.32 1.32 2 2 C-2.88682676 11.75102931 -7.66980626 20.82346295 -15 29 C-15.75152344 29.85851562 -16.50304687 30.71703125 -17.27734375 31.6015625 C-19.16913049 33.74935553 -21.07576927 35.88129914 -23 38 C-23 34.37194033 -22.44555767 34.12514601 -20 31.625 C-12.53993345 23.38124969 -7.57156024 13.63079431 -3.2265625 3.484375 C-2 1 -2 1 0 0 Z " fill="#EAEAEA" transform="translate(354,251)"/>
<path d="M0 0 C0.66 0.33 1.32 0.66 2 1 C2.51412606 16.88847253 1.64841492 31.51052417 -2 47 C-2.66 46.34 -3.32 45.68 -4 45 C-3.79296875 42.42578125 -3.79296875 42.42578125 -3.1875 39.3125 C-1.48960409 30.34441893 -0.74089845 21.67937469 -0.4375 12.5625 C-0.39431641 11.35400391 -0.35113281 10.14550781 -0.30664062 8.90039062 C-0.20110596 5.93369394 -0.09899286 2.96692098 0 0 Z " fill="#696969" transform="translate(364,195)"/>
<path d="M0 0 C3.03767912 1.34714466 4.99668202 2.82166703 7.25 5.25 C10.41375382 8.53042153 13.78428759 11.20175248 17.49609375 13.8359375 C17.99238281 14.22007812 18.48867188 14.60421875 19 15 C19 15.33 19 15.66 19 16 C12.23339765 16.381416 6.16354262 16.06286474 0 13 C-1.75390625 11.39453125 -1.75390625 11.39453125 -3 10 C-2.2575 10.165 -1.515 10.33 -0.75 10.5 C2.19006578 11.11925696 2.19006578 11.11925696 6 11 C5.67 10.34 5.34 9.68 5 9 C5.99 9 6.98 9 8 9 C7.4225 8.43410156 6.845 7.86820313 6.25 7.28515625 C5.13625 6.18494141 5.13625 6.18494141 4 5.0625 C2.88625 3.96615234 2.88625 3.96615234 1.75 2.84765625 C0 1 0 1 0 0 Z " fill="#4F4F4F" transform="translate(350,132)"/>
<path d="M0 0 C7.12672831 2.43351698 12.58436437 8.56969439 16.83203125 14.6015625 C18 17 18 17 17 20 C16.01 19.34 15.02 18.68 14 18 C14 17.34 14 16.68 14 16 C13.43410156 15.77183594 12.86820312 15.54367188 12.28515625 15.30859375 C9.38325139 13.64681917 7.62613556 11.58443031 5.4375 9.0625 C1.83064366 4.92587532 1.83064366 4.92587532 -2 1 C-1.34 0.67 -0.68 0.34 0 0 Z " fill="#626262" transform="translate(358,154)"/>
<path d="M0 0 C4.62 0.66 9.24 1.32 14 2 C14 2.33 14 2.66 14 3 C13.195625 3.12375 12.39125 3.2475 11.5625 3.375 C10.2940625 3.684375 10.2940625 3.684375 9 4 C8.67 4.66 8.34 5.32 8 6 C8.56203125 6.24492187 9.1240625 6.48984375 9.703125 6.7421875 C12.41865854 8.22926539 14.46391438 10.04062782 16.75 12.125 C17.54921875 12.84945312 18.3484375 13.57390625 19.171875 14.3203125 C19.77515625 14.87460938 20.3784375 15.42890625 21 16 C20.67 16.66 20.34 17.32 20 18 C19.01 17.34 18.02 16.68 17 16 C16.01 16 15.02 16 14 16 C14 15.34 14 14.68 14 14 C13.38125 13.9175 12.7625 13.835 12.125 13.75 C9.33061257 12.76374561 9.283048 11.56609601 8 9 C7.34 8.855625 6.68 8.71125 6 8.5625 C5.34 8.376875 4.68 8.19125 4 8 C2.875 5.625 2.875 5.625 2 3 C1.34 2.01 0.68 1.02 0 0 Z " fill="#4B4B4B" transform="translate(326,125)"/>
<path d="M0 0 C3.63 0 7.26 0 11 0 C11 0.66 11 1.32 11 2 C8.03 2 5.06 2 2 2 C2 3.98 2 5.96 2 8 C4.97 8 7.94 8 11 8 C11 8.66 11 9.32 11 10 C8.03 10 5.06 10 2 10 C2 11.98 2 13.96 2 16 C4.97 16 7.94 16 11 16 C11 16.66 11 17.32 11 18 C7.37 18 3.74 18 0 18 C0 12.06 0 6.12 0 0 Z " fill="#5B5B5B" transform="translate(366,343)"/>
<path d="M0 0 C3.63 0 7.26 0 11 0 C11 0.66 11 1.32 11 2 C8.03 2 5.06 2 2 2 C2 3.98 2 5.96 2 8 C4.97 8 7.94 8 11 8 C11 8.66 11 9.32 11 10 C8.03 10 5.06 10 2 10 C2 11.98 2 13.96 2 16 C4.97 16 7.94 16 11 16 C11 16.66 11 17.32 11 18 C7.37 18 3.74 18 0 18 C0 12.06 0 6.12 0 0 Z " fill="#5E5E5E" transform="translate(273,343)"/>
<path d="M0 0 C5.21979128 -0.1799928 9.07262981 0.02905192 14 2 C12.68 2.33 11.36 2.66 10 3 C11.32 4.32 12.64 5.64 14 7 C12.35 6.67 10.7 6.34 9 6 C9.9075 6.7425 10.815 7.485 11.75 8.25 C13.61563256 9.79023153 15.24206339 11.26626972 16.875 13.0625 C19.87847214 15.8009599 23.32460283 17.32287702 27 19 C24.48702007 19.94519741 23.41529087 20.18656864 20.921875 19.06640625 C16.06408326 15.70264758 11.93719486 12.1061425 7.86328125 7.828125 C6.15458392 6.15166724 4.52005805 4.89285845 2.5 3.625 C1.675 3.08875 0.85 2.5525 0 2 C0 1.34 0 0.68 0 0 Z " fill="#555555" transform="translate(132,271)"/>
<path d="M0 0 C3.70065017 0.55542045 6.13102437 1.48030603 9.1875 3.625 C9.95320313 4.15609375 10.71890625 4.6871875 11.5078125 5.234375 C12.74144531 6.10835937 12.74144531 6.10835937 14 7 C14.92554688 7.64453125 15.85109375 8.2890625 16.8046875 8.953125 C19.20832125 10.62817855 21.60624249 12.31087674 24 14 C19.6882921 15.47608018 17.35484695 14.26269954 13.3828125 12.375 C7.95152372 9.24087926 3.63272256 5.08135426 0 0 Z " fill="#F2F2F2" transform="translate(335,130)"/>
<path d="M0 0 C3.63 0 7.26 0 11 0 C11 0.66 11 1.32 11 2 C8.03 2 5.06 2 2 2 C2 3.98 2 5.96 2 8 C4.64 8 7.28 8 10 8 C10 8.66 10 9.32 10 10 C7.36 10 4.72 10 2 10 C2 11.98 2 13.96 2 16 C4.97 16 7.94 16 11 16 C11 16.66 11 17.32 11 18 C7.37 18 3.74 18 0 18 C0 12.06 0 6.12 0 0 Z " fill="#626262" transform="translate(246,343)"/>
<path d="M0 0 C0.66 0.66 1.32 1.32 2 2 C1.79296875 4.35546875 1.79296875 4.35546875 1.1875 7.1875 C-0.36538753 14.63927574 -1.17619682 21.90861425 -1.5 29.5 C-1.73744386 35.06673935 -2.11229026 40.4961996 -3 46 C-3.33 46 -3.66 46 -4 46 C-4.46330095 30.11055922 -4.19921792 15.39088353 0 0 Z " fill="#6A6A6A" transform="translate(139,179)"/>
<path d="M0 0 C0.66 0 1.32 0 2 0 C2.79901335 2.90807566 3.23175344 5.7009191 3.5 8.703125 C3.5825 9.60160156 3.665 10.50007813 3.75 11.42578125 C3.8325 12.35777344 3.915 13.28976562 4 14.25 C4.56413434 20.51717992 5.17980703 26.7606749 6 33 C-0.0362792 25.59183917 -0.16467727 17.23487486 -0.0625 8.0625 C-0.05798828 7.28326172 -0.05347656 6.50402344 -0.04882812 5.70117188 C-0.03716908 3.80074732 -0.01923877 1.90036294 0 0 Z " fill="#F3F3F3" transform="translate(161,253)"/>
<path d="M0 0 C0 0.33 0 0.66 0 1 C3.3 1.33 6.6 1.66 10 2 C10 2.33 10 2.66 10 3 C9.37134033 3.02505615 8.74268066 3.0501123 8.0949707 3.07592773 C-8.96954231 3.75568823 -8.96954231 3.75568823 -26 5 C-25.67 4.01 -25.34 3.02 -25 2 C-16.58481953 0.47983837 -8.5511272 -0.27733386 0 0 Z " fill="#4F4F4F" transform="translate(250,98)"/>
<path d="M0 0 C2.5 2.5 2.5 2.5 4 5 C3.29875 4.67 2.5975 4.34 1.875 4 C-1.34160154 2.88118207 -3.61830655 2.63242462 -7 3 C-9 4 -9 4 -10 6 C-10.39365568 9.14924548 -10.52854531 11.11909116 -8.875 13.875 C-6.11909116 15.52854531 -4.14924548 15.39365568 -1 15 C0.7511573 13.5833253 0.7511573 13.5833253 2 12 C2.66 12 3.32 12 4 12 C2.63016497 15.16115776 2.0109362 15.9927092 -1 18 C-4.375 18.5 -4.375 18.5 -8 18 C-11.69374497 14.77779694 -12.77969084 13.25576218 -13.625 8.4375 C-13 5 -13 5 -11 2.0625 C-6.83082591 -0.80380719 -4.98902441 -0.79190864 0 0 Z " fill="#595959" transform="translate(358,343)"/>
<path d="M0 0 C0 0.66 0 1.32 0 2 C-8.64491335 5.16277318 -16.90339345 5.12311197 -26 5 C-26 4.67 -26 4.34 -26 4 C-29.63 3.67 -33.26 3.34 -37 3 C-37 2.67 -37 2.34 -37 2 C-35.97229492 1.96241577 -35.97229492 1.96241577 -34.92382812 1.92407227 C-31.7824065 1.80714393 -28.64121452 1.68486126 -25.5 1.5625 C-23.88351563 1.50352539 -23.88351563 1.50352539 -22.234375 1.44335938 C-14.84372568 1.1504373 -7.36780712 -0.23024397 0 0 Z " fill="#4A4A4A" transform="translate(277,318)"/>
<path d="M0 0 C2.4375 1.375 2.4375 1.375 4 3 C4 3.66 4 4.32 4 5 C3.484375 4.67 2.96875 4.34 2.4375 4 C-0.90236837 2.62979759 -3.42599644 2.6101087 -7 3 C-9.16666667 4.5 -9.16666667 4.5 -10 7 C-9.77962372 10.67293796 -9.63033454 12.36966546 -7 15 C-2.76036719 15.31404687 0.36534398 15.32617985 4 13 C2.25 16.875 2.25 16.875 0 18 C-4.29322859 18.48602588 -6.32082639 18.46241608 -9.9375 16 C-12.23092162 12.66411401 -12.75815509 10.90015906 -12.48046875 6.9375 C-10.86455421 0.42129178 -5.99612677 -0.87216389 0 0 Z " fill="#585858" transform="translate(135,343)"/>
<path d="M0 0 C0.33 0 0.66 0 1 0 C1.34799021 6.03183026 0.36706638 10.99274862 -1.19921875 16.8125 C-2.45738045 21.82059729 -3.23098684 26.89737147 -4 32 C-7.07494034 27.38758949 -6.7169922 23.41329111 -6 18 C-4.3909406 11.87663507 -2.19328883 5.93362961 0 0 Z " fill="#EDEDED" transform="translate(153,224)"/>
<path d="M0 0 C0.33 0 0.66 0 1 0 C3.12467337 9.82661435 2.08284028 18.54317915 -1 28 C-1.28617187 28.88816406 -1.57234375 29.77632812 -1.8671875 30.69140625 C-2.56045993 32.80093521 -3.26992568 34.90297803 -4 37 C-4.33 37 -4.66 37 -5 37 C-5.1923813 31.40853072 -4.62237178 26.70065813 -3.0625 21.3125 C-1.13617163 14.22361159 -0.25200842 7.35864599 0 0 Z " fill="#F0F0F0" transform="translate(351,159)"/>
<path d="M0 0 C0.33 0 0.66 0 1 0 C1.67886067 9.95662322 -0.30569333 18.52181404 -3 28 C-3.33 28 -3.66 28 -4 28 C-4.4271618 17.87863851 -4.52270791 9.34827573 0 0 Z " fill="#F9F9F9" transform="translate(348,160)"/>
<path d="M0 0 C3.63 0 7.26 0 11 0 C11 0.66 11 1.32 11 2 C8.36 2 5.72 2 3 2 C3 3.98 3 5.96 3 8 C5.64 8 8.28 8 11 8 C11 8.66 11 9.32 11 10 C8.03 10 5.06 10 2 10 C2 12.64 2 15.28 2 18 C1.34 18 0.68 18 0 18 C0 12.06 0 6.12 0 0 Z " fill="#6F6F6F" transform="translate(176,343)"/>
<path d="M0 0 C1.0161846 1.32103998 2.01133494 2.65824027 3 4 C3.680625 4.86625 4.36125 5.7325 5.0625 6.625 C7.54814098 10.95482623 8.26502617 15.10662158 9 20 C4.87880361 16.23204901 1.1909497 12.20718988 -1 7 C-1.11402273 4.37251978 -0.69738395 2.57495613 0 0 Z " fill="#F1F1F1" transform="translate(153,261)"/>
<path d="M0 0 C2.02739969 5.34264447 -0.98552189 10.15741979 -3.13183594 15.09130859 C-4.67678149 18.4879296 -6.33843024 21.81612624 -8.0625 25.125 C-8.55447876 26.08369995 -8.55447876 26.08369995 -9.05639648 27.06176758 C-10.92286772 30.53445627 -12.61158149 32.93223459 -16 35 C-16 31 -16 31 -14.7421875 29.6796875 C-14.16726563 29.12539063 -13.59234375 28.57109375 -13 28 C-11.63743913 25.72526448 -10.35866865 23.46737518 -9.125 21.125 C-8.77566406 20.46749756 -8.42632812 19.80999512 -8.06640625 19.13256836 C-4.84485073 12.93984113 -2.31118013 6.58908565 0 0 Z " fill="#5B5B5B" transform="translate(354,242)"/>
<path d="M0 0 C0.33 0 0.66 0 1 0 C0.93941406 0.70382813 0.87882813 1.40765625 0.81640625 2.1328125 C0.14169719 10.08399921 -0.44653403 18.03951074 -1 26 C-6.02233251 19.37965261 -6.02233251 19.37965261 -5.875 16.875 C-4.8422943 13.48182414 -3.40436071 10.37757994 -1.921875 7.16015625 C-0.91448793 4.79962637 -0.32845746 2.5455453 0 0 Z " fill="#EDEDED" transform="translate(160,241)"/>
<path d="M0 0 C3.80212052 3.58485649 7.58925635 7.30708569 10 12 C9.9375 14.875 9.9375 14.875 9 17 C8.34 17.33 7.68 17.66 7 18 C0.29612756 6.66287016 0.29612756 6.66287016 0 0 Z " fill="#EEEEEE" transform="translate(339,140)"/>
<path d="M0 0 C2.9498291 2.9498291 4.20971141 5.97301477 5 10 C4.95922983 15.04021265 4.54127523 19.9915738 4 25 C3.67 25 3.34 25 3 25 C2.67 19.06 2.34 13.12 2 7 C1.34 7 0.68 7 0 7 C0 10.96 0 14.92 0 19 C-0.33 19 -0.66 19 -1 19 C-2.02385185 14.93515534 -1.973791 11.4166384 -1.625 7.25 C-1.53476563 6.10015625 -1.44453125 4.9503125 -1.3515625 3.765625 C-1 1 -1 1 0 0 Z " fill="#5E5E5E" transform="translate(161,246)"/>
<path d="M0 0 C2.29614156 2.11900829 3.77882973 4.14353164 5.2265625 6.90625 C5.6184375 7.65003906 6.0103125 8.39382812 6.4140625 9.16015625 C7.01347656 10.31837891 7.01347656 10.31837891 7.625 11.5 C8.03234375 12.27214844 8.4396875 13.04429687 8.859375 13.83984375 C11.66298098 19.19640219 13.12871415 23.02958413 13.0625 29.1875 C13.05347656 30.27417969 13.04445312 31.36085938 13.03515625 32.48046875 C13.02355469 33.31191406 13.01195312 34.14335937 13 35 C12.67 35 12.34 35 12 35 C12 33.68 12 32.36 12 31 C11.36944158 24.03383083 7.96040507 18.40056606 4.71484375 12.34375 C3 9 3 9 3 7 C2.34 7 1.68 7 1 7 C0.67 4.69 0.34 2.38 0 0 Z " fill="#565656" transform="translate(161,241)"/>
<path d="M0 0 C0.33 0.66 0.66 1.32 1 2 C-0.19882813 2.23783203 -0.19882813 2.23783203 -1.421875 2.48046875 C-9.39132758 4.17350973 -16.59099396 6.62256121 -24 10 C-24 9.01 -24 8.02 -24 7 C-20.75744348 5.62749639 -17.50496348 4.28028452 -14.25 2.9375 C-13.32960937 2.54755859 -12.40921875 2.15761719 -11.4609375 1.75585938 C-10.57148438 1.39169922 -9.68203125 1.02753906 -8.765625 0.65234375 C-7.94868164 0.31195068 -7.13173828 -0.02844238 -6.29003906 -0.37915039 C-3.726763 -1.07407694 -2.44127816 -1.00751698 0 0 Z " fill="#5E5E5E" transform="translate(225,102)"/>
<path d="M0 0 C3.90909091 3.90909091 3.90909091 3.90909091 5 7 C4.67411279 11.12790463 3.03007539 14.42706732 1 18 C0.34 18.33 -0.32 18.66 -1 19 C-0.67 12.73 -0.34 6.46 0 0 Z " fill="#E8E8E8" transform="translate(341,153)"/>
<path d="M0 0 C7.07271463 3.98973646 12.52568663 10.28852994 17 17 C10.57898662 15.19408999 5.2321137 10.09308818 1.5 4.6875 C0 2 0 2 0 0 Z " fill="#E6E6E6" transform="translate(354,156)"/>
<path d="M0 0 C8.25 0 16.5 0 25 0 C24.67 0.66 24.34 1.32 24 2 C26.475 2.495 26.475 2.495 29 3 C29 3.33 29 3.66 29 4 C21.74 3.67 14.48 3.34 7 3 C7 2.67 7 2.34 7 2 C4.69 1.67 2.38 1.34 0 1 C0 0.67 0 0.34 0 0 Z " fill="#A8A8A8" transform="translate(241,97)"/>
<path d="M0 0 C3.44216672 2.6598561 3.99504674 5.90288286 5 10 C4.34 10 3.68 10 3 10 C2.835 9.360625 2.67 8.72125 2.5 8.0625 C1.218214 5.83880759 1.218214 5.83880759 -0.9140625 5.51171875 C-2.93575155 5.2724022 -4.96841939 5.13106972 -7 5 C-7.33 6.65 -7.66 8.3 -8 10 C-8.99 9.67 -9.98 9.34 -11 9 C-9.68 6.36 -8.36 3.72 -7 1 C-6.67 1.66 -6.34 2.32 -6 3 C-4.02 3 -2.04 3 0 3 C0 2.01 0 1.02 0 0 Z " fill="#606060" transform="translate(168,351)"/>
<path d="M0 0 C2.31 0 4.62 0 7 0 C7.625 2.375 7.625 2.375 8 5 C6 7 6 7 2.875 7.125 C1.451875 7.063125 1.451875 7.063125 0 7 C0 4.69 0 2.38 0 0 Z " fill="#F3F3F3" transform="translate(145,345)"/>
<path d="M0 0 C1.19625 0.268125 2.3925 0.53625 3.625 0.8125 C4.85283203 1.08320313 4.85283203 1.08320313 6.10546875 1.359375 C8.19291203 1.82137324 10.27865537 2.29107602 12.36328125 2.765625 C19.23806682 4.29836408 25.96782506 5.53010813 33 6 C33 6.33 33 6.66 33 7 C21.29398865 8.11133019 10.26058687 4.82566782 -1 2 C-0.67 1.34 -0.34 0.68 0 0 Z " fill="#E0E0E0" transform="translate(213,315)"/>
<path d="M0 0 C0.66 0 1.32 0 2 0 C2 5.28 2 10.56 2 16 C4.31 16 6.62 16 9 16 C9 16.66 9 17.32 9 18 C6.03 18 3.06 18 0 18 C0 12.06 0 6.12 0 0 Z " fill="#696969" transform="translate(261,343)"/>
<path d="M0 0 C7.88323433 2.21715965 13.24421138 8.66019539 17.1875 15.49609375 C17.455625 15.99238281 17.72375 16.48867188 18 17 C14.24507123 15.47589059 12.19214276 13.22731235 9.5625 10.1875 C6.47334317 6.6650456 3.36571859 3.25714702 0 0 Z " fill="#E8E8E8" transform="translate(129,246)"/>
<path d="M0 0 C0.66 0 1.32 0 2 0 C3.66384365 10.56179015 2.00460876 18.9545484 -1 29 C-1.66 28.67 -2.32 28.34 -3 28 C-2.7834375 27.06800781 -2.566875 26.13601562 -2.34375 25.17578125 C-0.47959706 16.64037727 0.40003244 8.78589772 0 0 Z " fill="#6F6F6F" transform="translate(348,159)"/>
<path d="M0 0 C3.63 0 7.26 0 11 0 C11 0.66 11 1.32 11 2 C9.68 2 8.36 2 7 2 C7 7.28 7 12.56 7 18 C6.34 18 5.68 18 5 18 C5 12.39 5 6.78 5 1 C3.35 1 1.7 1 0 1 C0 0.67 0 0.34 0 0 Z " fill="#686868" transform="translate(189,343)"/>
<path d="M0 0 C0.66 0 1.32 0 2 0 C2 1.98 2 3.96 2 6 C2.99 5.67 3.98 5.34 5 5 C4.67 5.99 4.34 6.98 4 8 C3.34 8 2.68 8 2 8 C1.80083984 9.32064453 1.80083984 9.32064453 1.59765625 10.66796875 C1.33275391 12.41013672 1.33275391 12.41013672 1.0625 14.1875 C0.88847656 15.33605469 0.71445313 16.48460937 0.53515625 17.66796875 C0.08620687 20.46325212 -0.42082162 23.22933586 -1 26 C-1.66 25.34 -2.32 24.68 -3 24 C-2.79296875 21.03125 -2.79296875 21.03125 -2.1875 17.5 C-1.99542969 16.3346875 -1.80335938 15.169375 -1.60546875 13.96875 C-1 11 -1 11 0 9 C0.06950541 7.45976004 0.08452357 5.91665012 0.0625 4.375 C0.04896484 3.14910156 0.04896484 3.14910156 0.03515625 1.8984375 C0.02355469 1.27195313 0.01195312 0.64546875 0 0 Z " fill="#6B6B6B" transform="translate(153,223)"/>
<path d="M0 0 C7.59 0 15.18 0 23 0 C23 0.99 23 1.98 23 3 C19.72918529 3.02902429 16.4584037 3.04680684 13.1875 3.0625 C12.25873047 3.07087891 11.32996094 3.07925781 10.37304688 3.08789062 C9.48037109 3.09111328 8.58769531 3.09433594 7.66796875 3.09765625 C6.43469849 3.10551147 6.43469849 3.10551147 5.17651367 3.11352539 C3 3 3 3 0 2 C0 1.34 0 0.68 0 0 Z " fill="#E9CB78" transform="translate(226,238)"/>
<path d="M0 0 C0.66 0.33 1.32 0.66 2 1 C1.38253906 1.59425781 0.76507813 2.18851563 0.12890625 2.80078125 C-6.08478831 8.88206832 -11.61982218 15.16431513 -17 22 C-17.66 21.67 -18.32 21.34 -19 21 C-13.21998585 13.3650816 -6.86555967 6.63839041 0 0 Z " fill="#555555" transform="translate(174,126)"/>
<path d="M0 0 C0.33 0 0.66 0 1 0 C1 2.64 1 5.28 1 8 C3.31 8 5.62 8 8 8 C7.01 8.495 7.01 8.495 6 9 C7.65 11.64 9.3 14.28 11 17 C10.01 17 9.02 17 8 17 C6.64721885 15.01310269 5.31431695 13.01254782 4 11 C3.01 10.67 2.02 10.34 1 10 C1 12.31 1 14.62 1 17 C0.67 17 0.34 17 0 17 C0 11.39 0 5.78 0 0 Z " fill="#4F4F4F" transform="translate(144,344)"/>
<path d="M0 0 C0.33 0 0.66 0 1 0 C0.8901717 3.43816147 0.75953137 6.87522348 0.625 10.3125 C0.5940625 11.28896484 0.563125 12.26542969 0.53125 13.27148438 C0.49257813 14.20927734 0.45390625 15.14707031 0.4140625 16.11328125 C0.3826416 16.97735596 0.3512207 17.84143066 0.31884766 18.73168945 C0 21 0 21 -2 24 C-2.05819424 20.75007554 -2.09366116 17.50028565 -2.125 14.25 C-2.14175781 13.32960937 -2.15851563 12.40921875 -2.17578125 11.4609375 C-2.18222656 10.57148438 -2.18867188 9.68203125 -2.1953125 8.765625 C-2.20578613 7.94868164 -2.21625977 7.13173828 -2.22705078 6.29003906 C-1.97829916 3.78112482 -1.25700129 2.16604375 0 0 Z " fill="#6A6A6A" transform="translate(344,166)"/>
<path d="M0 0 C0 3.99276139 -1.33229815 4.72290776 -4.0625 7.5625 C-8.56700016 12.40198673 -12.35610359 17.4931469 -16 23 C-16.66 22.67 -17.32 22.34 -18 22 C-12.51304418 14.07610011 -6.60775242 7.00042623 0 0 Z " fill="#DFDFDF" transform="translate(172,130)"/>
<path d="M0 0 C0.99 0.33 1.98 0.66 3 1 C-0.465 8.425 -0.465 8.425 -4 16 C-4.99 15.67 -5.98 15.34 -7 15 C-5.45454854 9.52067211 -2.84456788 4.88570819 0 0 Z " fill="#EBEBEB" transform="translate(153,153)"/>
<path d="M0 0 C3.3 0 6.6 0 10 0 C9.71180351 3.45835793 9.21034962 4.78380733 6.75 7.3125 C3.7990854 9.12328851 2.38489309 9.38684492 -1 9 C-0.01 8.34 0.98 7.68 2 7 C3.67423683 5.67618483 5.34211215 4.34423339 7 3 C4.69 2.67 2.38 2.34 0 2 C0 1.34 0 0.68 0 0 Z " fill="#6C6C6C" transform="translate(297,352)"/>
<path d="M0 0 C0 0.33 0 0.66 0 1 C2.475 1.495 2.475 1.495 5 2 C5 2.33 5 2.66 5 3 C-3.25 3 -11.5 3 -20 3 C-20 2.67 -20 2.34 -20 2 C-13.2168636 0.57997892 -6.93302093 -0.22731216 0 0 Z " fill="#838383" transform="translate(255,321)"/>
<path d="M0 0 C0.33 0 0.66 0 1 0 C1.1968121 2.04079005 1.38202831 4.08270007 1.5625 6.125 C1.66691406 7.26195312 1.77132812 8.39890625 1.87890625 9.5703125 C2 13 2 13 1.40625 16.25 C0.65663567 19.18741092 0.65663567 19.18741092 2.9375 21.875 C3.618125 22.57625 4.29875 23.2775 5 24 C4.01 24 3.02 24 2 24 C1.34 22.68 0.68 21.36 0 20 C-0.66 20 -1.32 20 -2 20 C-1.34 13.4 -0.68 6.8 0 0 Z " fill="#5B5B5B" transform="translate(172,266)"/>
<path d="M0 0 C5.23435005 4.27293882 9.67106815 8.81580806 14 14 C9.92982221 14 8.65913132 12.35546275 5.71875 9.7265625 C3.05659594 7.05230774 0 3.93894752 0 0 Z " fill="#E6E6E6" transform="translate(127,247)"/>
<path d="M0 0 C2.18975773 3.28463659 2.99806563 6.20696275 4 10 C4.33 10 4.66 10 5 10 C4.67 15.61 4.34 21.22 4 27 C3.67 27 3.34 27 3 27 C2.92652344 25.71416016 2.92652344 25.71416016 2.8515625 24.40234375 C2.48810243 17.16492952 2.48810243 17.16492952 0.9375 10.125 C-0.11294913 6.62350291 -0.14838519 3.63543712 0 0 Z " fill="#505050" transform="translate(143,227)"/>
<path d="M0 0 C5.55429293 2.52807504 10.70328633 6.46060239 13.5 11.9375 C13.665 12.618125 13.83 13.29875 14 14 C9.98542541 12.43356552 7.5325034 9.59612668 4.75 6.4375 C4.29109375 5.93025391 3.8321875 5.42300781 3.359375 4.90039062 C0 1.1460891 0 1.1460891 0 0 Z " fill="#E4E4E4" transform="translate(358,156)"/>
<path d="M0 0 C8.31054466 1.00733875 13.56918716 6.12349735 19 12 C14.84722968 12 13.31696615 10.20981184 10.0625 7.6875 C9.02222656 6.88699219 7.98195313 6.08648437 6.91015625 5.26171875 C5.94980469 4.51535156 4.98945313 3.76898438 4 3 C2.66903072 1.99685567 1.33680418 0.9953554 0 0 Z " fill="#DFDFDF" transform="translate(340,129)"/>
<path d="M0 0 C2.34058637 2.12780579 3.70700306 4.11562221 5 7 C5.66 5.35 6.32 3.7 7 2 C7.33 2 7.66 2 8 2 C8 5.96 8 9.92 8 14 C5 13 5 13 3.61328125 10.56640625 C2.96939453 9.07947266 2.96939453 9.07947266 2.3125 7.5625 C1.87550781 6.57378906 1.43851562 5.58507812 0.98828125 4.56640625 C0 2 0 2 0 0 Z " fill="#515151" transform="translate(332,164)"/>
<path d="M0 0 C2.95929119 2.75520215 5.03681826 5.46627288 7 9 C6.34 9 5.68 9 5 9 C4.67 9.66 4.34 10.32 4 11 C2.72791378 10.37755401 1.45738118 9.75193233 0.1875 9.125 C-0.52019531 8.77695312 -1.22789062 8.42890625 -1.95703125 8.0703125 C-4 7 -4 7 -7 5 C-2.82412255 3.60804085 -0.86525224 5.17676781 3 7 C2.505 6.401875 2.01 5.80375 1.5 5.1875 C0 3 0 3 0 0 Z " fill="#5C5C5C" transform="translate(152,269)"/>
<path d="M0 0 C2.9719385 1.12451727 5.33440687 2.22293791 8 4 C10.0492094 4.45139459 10.0492094 4.45139459 12.1875 4.625 C13.445625 4.74875 14.70375 4.8725 16 5 C16.33 6.32 16.66 7.64 17 9 C11.27785722 8.55983517 6.66313952 6.22689255 2 3 C1.34 2.01 0.68 1.02 0 0 Z " fill="#5E5E5E" transform="translate(361,168)"/>
<path d="M0 0 C0.721875 0.103125 1.44375 0.20625 2.1875 0.3125 C-1.48807852 4.32222202 -5.00216896 6.76585415 -9.8125 9.3125 C-7.9542153 4.75125573 -5.1211191 0.56901323 0 0 Z " fill="#515151" transform="translate(318.8125,297.6875)"/>
<path d="M0 0 C0.33 0 0.66 0 1 0 C1.22573595 3.60329889 1.42759125 7.20754699 1.625 10.8125 C1.68945312 11.83666016 1.75390625 12.86082031 1.8203125 13.91601562 C1.871875 14.89892578 1.9234375 15.88183594 1.9765625 16.89453125 C2.02893066 17.80050049 2.08129883 18.70646973 2.13525391 19.63989258 C2 22 2 22 0 25 C-0.80542989 16.51200811 -1.12298921 8.46561098 0 0 Z " fill="#777777" transform="translate(142,205)"/>
<path d="M0 0 C-2.87078299 1.91385532 -5.33411656 2.96432952 -8.5625 4.125 C-9.53316406 4.47820312 -10.50382812 4.83140625 -11.50390625 5.1953125 C-14 6 -14 6 -16 6 C-16 5.34 -16 4.68 -16 4 C-16.66 3.67 -17.32 3.34 -18 3 C-15.565036 2.30215669 -13.12772895 1.61646178 -10.6875 0.9375 C-9.65206055 0.63875977 -9.65206055 0.63875977 -8.59570312 0.33398438 C-3.33984375 -1.11328125 -3.33984375 -1.11328125 0 0 Z " fill="#666666" transform="translate(293,314)"/>
<path d="M0 0 C3.00811079 1.42885262 5.73811856 3.07890512 8.5 4.9375 C9.2528125 5.44152344 10.005625 5.94554687 10.78125 6.46484375 C12.89511923 7.92743285 14.95498735 9.44300173 17 11 C11.39285827 10.57946437 7.33251367 8.45262127 3 5 C1 2.1875 1 2.1875 0 0 Z " fill="#E4E4E4" transform="translate(144,279)"/>
<path d="M0 0 C6.41481258 -0.42765417 11.88595404 1.14256832 18 3 C17.01 4.485 17.01 4.485 16 6 C10.72 4.35 5.44 2.7 0 1 C0 0.67 0 0.34 0 0 Z " fill="#E1E1E1" transform="translate(271,101)"/>
<path d="M0 0 C1.86529124 2.79793686 2.61067174 4.69468482 3.5 7.875 C4.49825494 11.34102221 5.56335973 14.68467629 7 18 C6.34 18.33 5.68 18.66 5 19 C1.62918387 12.4509858 -0.70048208 7.42511009 0 0 Z " fill="#616161" transform="translate(326,146)"/>
<path d="M0 0 C0.10251672 5.12583611 0.03590199 9.94997778 -1 15 C-3.28062828 11.57905758 -3.21925007 10.31812778 -3.125 6.3125 C-3.10695312 5.31863281 -3.08890625 4.32476562 -3.0703125 3.30078125 C-3.04710937 2.54152344 -3.02390625 1.78226563 -3 1 C-1 0 -1 0 0 0 Z " fill="#DFDFDF" transform="translate(150,241)"/>
<path d="M0 0 C0.66 0 1.32 0 2 0 C0.51299286 4.82829428 -2.21283256 7.7487769 -5.625 11.3125 C-6.3984375 12.13717773 -6.3984375 12.13717773 -7.1875 12.97851562 C-8.45200618 14.32498054 -9.72514922 15.66332535 -11 17 C-11 13.30086449 -10.21692022 12.81508099 -7.75 10.1875 C-5.49224412 7.71993246 -3.45996553 5.33729273 -1.6875 2.5 C-1.130625 1.675 -0.57375 0.85 0 0 Z " fill="#DCDCDC" transform="translate(342,272)"/>
<path d="M0 0 C1.9375 0.5625 1.9375 0.5625 4 2 C5.65313885 7.97673278 4.71561668 13.91175352 4 20 C3.67 20 3.34 20 3 20 C2.67 14.06 2.34 8.12 2 2 C1.34 2 0.68 2 0 2 C0 1.34 0 0.68 0 0 Z " fill="#848484" transform="translate(161,251)"/>
<path d="M0 0 C0.33 0 0.66 0 1 0 C2.22517308 5.66642551 2.09228867 11.23708518 2 17 C1.01 16.67 0.02 16.34 -1 16 C-0.67 10.72 -0.34 5.44 0 0 Z " fill="#E8E8E8" transform="translate(351,159)"/>
<path d="M0 0 C0.99 0 1.98 0 3 0 C3 3.3 3 6.6 3 10 C2.01 10.495 2.01 10.495 1 11 C-0.28317892 7.15046324 -0.06643637 4.05261865 0 0 Z " fill="#525252" transform="translate(343,187)"/>
<path d="M0 0 C5.40489519 1.52012677 8.98492628 5.27385218 13 9 C12.34 9.66 11.68 10.32 11 11 C9.16365304 9.35742342 7.3308593 7.71117305 5.5 6.0625 C4.97535156 5.59392578 4.45070313 5.12535156 3.91015625 4.64257812 C2.5878256 3.44904592 1.29166061 2.22665821 0 1 C0 0.67 0 0.34 0 0 Z " fill="#5E5E5E" transform="translate(316,124)"/>
<path d="M0 0 C3.1894996 4.7842494 4.26863974 8.22424557 4 14 C3.34 13.67 2.68 13.34 2 13 C1.11328125 10.3125 1.11328125 10.3125 0.3125 7 C0.04050781 5.906875 -0.23148437 4.81375 -0.51171875 3.6875 C-0.67285156 2.800625 -0.83398438 1.91375 -1 1 C-0.67 0.67 -0.34 0.34 0 0 Z " fill="#6B6B6B" transform="translate(358,169)"/>
<path d="M0 0 C0.99 0.33 1.98 0.66 3 1 C0.69 4.63 -1.62 8.26 -4 12 C-4.66 11.34 -5.32 10.68 -6 10 C-4.02 6.7 -2.04 3.4 0 0 Z " fill="#646464" transform="translate(154,148)"/>
<path d="M0 0 C0.66 0.33 1.32 0.66 2 1 C2.625 4.0625 2.625 4.0625 3 7 C1.35 7 -0.3 7 -2 7 C-1.125 2.25 -1.125 2.25 0 0 Z " fill="#F2F2F2" transform="translate(317,347)"/>
<path d="M0 0 C2.35953094 2.35953094 2.49141413 3.77895617 3 7 C1.02 7 -0.96 7 -3 7 C-2.01 4.69 -1.02 2.38 0 0 Z " fill="#F3F3F3" transform="translate(165,347)"/>
<path d="M0 0 C0.33 0 0.66 0 1 0 C2.10228696 4.40914783 2.07654536 8.48382401 2 13 C-0.125 11 -0.125 11 -2 8 C-1.75256577 5.08995833 -0.94868985 2.79863507 0 0 Z " fill="#4C4C4C" transform="translate(159,260)"/>
<path d="M0 0 C0.66 0.66 1.32 1.32 2 2 C1.7578125 4.6015625 1.7578125 4.6015625 1.125 7.625 C0.81949219 9.12933594 0.81949219 9.12933594 0.5078125 10.6640625 C0.34023437 11.43492187 0.17265625 12.20578125 0 13 C-0.66 12.34 -1.32 11.68 -2 11 C-1.7578125 8.3984375 -1.7578125 8.3984375 -1.125 5.375 C-0.92132813 4.37210938 -0.71765625 3.36921875 -0.5078125 2.3359375 C-0.34023437 1.56507813 -0.17265625 0.79421875 0 0 Z " fill="#767676" transform="translate(139,179)"/>
<path d="M0 0 C4.68738665 0.90723613 9.34193744 1.9547267 14 3 C10.3046875 5.0234375 10.3046875 5.0234375 7.5625 4.8125 C4.70837323 3.90753298 2.46557537 2.69068026 0 1 C0 0.67 0 0.34 0 0 Z " fill="#6D6D6D" transform="translate(347,142)"/>
<path d="M0 0 C2.97 0.495 2.97 0.495 6 1 C5.42655063 3.86724686 5.1385485 4.8614515 3 7 C0 2.25 0 2.25 0 0 Z " fill="#515151" transform="translate(122,242)"/>
<path d="M0 0 C0.66 0 1.32 0 2 0 C3.42258812 3.82320557 4.24042276 6.91281305 4 11 C3.34 11 2.68 11 2 11 C2 8.69 2 6.38 2 4 C1.01 3.67 0.02 3.34 -1 3 C-0.67 2.01 -0.34 1.02 0 0 Z " fill="#4A4A4A" transform="translate(153,218)"/>
<path d="M0 0 C0.99 0.33 1.98 0.66 3 1 C1.03681826 4.53372712 -1.04070881 7.24479785 -4 10 C-2.8905928 6.51329166 -1.73662334 3.22515763 0 0 Z " fill="#767676" transform="translate(176,124)"/>
<path d="M0 0 C3.44216672 2.6598561 3.99504674 5.90288286 5 10 C4.34 10 3.68 10 3 10 C0.4606772 6.58168085 -0.3636198 4.24223102 0 0 Z " fill="#595959" transform="translate(168,351)"/>
<path d="M0 0 C1.17539996 0.92652701 2.34010577 1.86663387 3.5 2.8125 C4.1496875 3.33457031 4.799375 3.85664063 5.46875 4.39453125 C7 6 7 6 7 9 C2.97449681 7.6581656 2.11714364 5.5772427 0 2 C0 1.34 0 0.68 0 0 Z " fill="#696969" transform="translate(137,255)"/>
<path d="M0 0 C0.33 0 0.66 0 1 0 C1.22134176 2.12368444 1.42670007 4.24904024 1.625 6.375 C1.74101562 7.55835938 1.85703125 8.74171875 1.9765625 9.9609375 C1.98429688 10.96382813 1.99203125 11.96671875 2 13 C1.34 13.66 0.68 14.32 0 15 C-1.14229879 11.57310364 -0.90861076 9.38897782 -0.5625 5.8125 C-0.46066406 4.72582031 -0.35882813 3.63914062 -0.25390625 2.51953125 C-0.17011719 1.68808594 -0.08632812 0.85664063 0 0 Z " fill="#8B8B8B" transform="translate(172,266)"/>
<path d="M0 0 C0.33 0.66 0.66 1.32 1 2 C-1.31 2.33 -3.62 2.66 -6 3 C-6.33 2.01 -6.66 1.02 -7 0 C-3.88407501 -1.03864166 -2.9737344 -1.09036928 0 0 Z " fill="#6B6B6B" transform="translate(225,102)"/>
<path d="M0 0 C-0.28875 0.515625 -0.5775 1.03125 -0.875 1.5625 C-2.28780027 4.62356725 -3.1248517 7.74944918 -4 11 C-4.33 11 -4.66 11 -5 11 C-5.36637589 4.64948454 -5.36637589 4.64948454 -3.625 1.5625 C-2 0 -2 0 0 0 Z " fill="#535353" transform="translate(128,344)"/>
<path d="M0 0 C3.85478218 -0.35858439 5.57759458 -0.2754818 8.875 1.875 C9.57625 2.57625 10.2775 3.2775 11 4 C11 4.66 11 5.32 11 6 C10.01 5.67 9.02 5.34 8 5 C8 4.34 8 3.68 8 3 C5.36 2.34 2.72 1.68 0 1 C0 0.67 0 0.34 0 0 Z " fill="#545454" transform="translate(295,343)"/>
<path d="M0 0 C1.0725 0.2475 2.145 0.495 3.25 0.75 C3.25 1.08 3.25 1.41 3.25 1.75 C0.61 2.08 -2.03 2.41 -4.75 2.75 C-5.08 3.74 -5.41 4.73 -5.75 5.75 C-6.41 5.09 -7.07 4.43 -7.75 3.75 C-5.15187156 0.32047046 -4.43092205 -0.2953948 0 0 Z " fill="#6D6D6D" transform="translate(296.75,343.25)"/>
<path d="M0 0 C0.33 1.32 0.66 2.64 1 4 C-1.9375 3.625 -1.9375 3.625 -5 3 C-5.33 2.34 -5.66 1.68 -6 1 C-4 0 -4 0 0 0 Z " fill="#535353" transform="translate(377,173)"/>
<path d="M0 0 C0.66 0.33 1.32 0.66 2 1 C0.02579865 3.52259061 -0.96745642 3.9929808 -4.1875 4.6875 C-5.5796875 4.8421875 -5.5796875 4.8421875 -7 5 C-4.88437775 2.67281553 -2.94982021 1.14186589 0 0 Z " fill="#5A5A5A" transform="translate(299,309)"/>
<path d="M0 0 C3.91402949 1.26941497 5.79072873 2.51167694 8 6 C3 4 3 4 -2 2 C-1.34 1.34 -0.68 0.68 0 0 Z " fill="#E7C466" transform="translate(316,237)"/>
<path d="M0 0 C0.66 0 1.32 0 2 0 C0.54728878 3.75283733 0.54728878 3.75283733 -1.9375 4.875 C-4 5 -4 5 -7 3 C-5.5459375 2.5359375 -5.5459375 2.5359375 -4.0625 2.0625 C-1.15934208 1.30476658 -1.15934208 1.30476658 0 0 Z " fill="#5E5E5E" transform="translate(137,356)"/>
<path d="M0 0 C2.97 0.99 5.94 1.98 9 3 C9 3.99 9 4.98 9 6 C5.06326356 4.68775452 2.77280706 3.08089673 0 0 Z " fill="#757575" transform="translate(140,276)"/>
</svg>
